# Blender v2.79 (sub 0) OBJ File: 'buzz.blend'
# www.blender.org
mtllib buzzlightyHip.mtl
o buzzlightyHip_buzzlighty.011
v -0.024760 0.350321 0.047977
v -0.027518 0.386951 0.003255
v -0.013302 0.312549 0.006561
v -0.045266 0.408629 0.051807
v -0.093010 0.414710 0.032030
v -0.039462 0.405567 0.074418
v 0.000012 0.312527 -0.033966
v -0.037655 0.325015 -0.029166
v 0.000012 0.328374 -0.062832
v -0.062232 0.349232 -0.045193
v 0.000012 0.310024 0.005659
v 0.000012 0.333031 0.039386
v -0.013302 0.312549 0.006561
v -0.024760 0.350321 0.047977
v -0.062232 0.349232 -0.045193
v -0.037655 0.325015 -0.029166
v -0.090096 0.397770 0.028537
v -0.055968 0.383939 0.058327
v -0.093010 0.414710 0.032030
v -0.039462 0.405567 0.074418
v -0.063698 0.386186 -0.058566
v 0.000012 0.375041 -0.079771
v 0.000012 0.413229 -0.080097
v -0.062144 0.416638 -0.063803
v 0.000012 0.410086 -0.074337
v -0.053561 0.413348 -0.045777
v 0.000012 0.410787 -0.065838
v -0.096498 0.395748 -0.021605
v -0.055968 0.383939 0.058327
v -0.090096 0.397770 0.028537
v -0.035630 0.381321 0.072562
v -0.055968 0.383939 0.058327
v -0.096498 0.395748 -0.021605
v -0.098298 0.418903 -0.025047
v 0.000012 0.350837 0.062378
v -0.079682 0.414375 -0.000757
v -0.098298 0.418903 -0.025047
v -0.096498 0.395748 -0.021605
v -0.062144 0.416638 -0.063803
v 0.000012 0.413229 -0.080097
v -0.063698 0.386186 -0.058566
v 0.000012 0.375041 -0.079771
v 0.000012 0.404770 0.069319
v 0.000012 0.404038 0.082705
v 0.000012 0.381313 0.079250
v 0.000012 0.381313 0.079250
v 0.000012 0.404038 0.082705
v -0.035630 0.381321 0.072562
v 0.024784 0.350321 0.047977
v 0.013326 0.312549 0.006561
v 0.027542 0.386951 0.003255
v 0.045289 0.408629 0.051807
v 0.039485 0.405567 0.074418
v 0.093034 0.414710 0.032030
v 0.062256 0.349232 -0.045193
v 0.038916 0.325944 -0.030476
v 0.024784 0.350321 0.047977
v 0.013326 0.312549 0.006561
v 0.038916 0.325944 -0.030476
v 0.062256 0.349232 -0.045193
v 0.090119 0.397770 0.028537
v 0.093034 0.414710 0.032030
v 0.055992 0.383939 0.058327
v 0.039485 0.405567 0.074418
v 0.063722 0.386186 -0.058566
v 0.062167 0.416638 -0.063803
v 0.053584 0.413348 -0.045777
v 0.096522 0.395748 -0.021605
v 0.090119 0.397770 0.028537
v 0.055992 0.383939 0.058327
v 0.035653 0.381321 0.072562
v 0.055992 0.383939 0.058327
v 0.096522 0.395748 -0.021605
v 0.098322 0.418903 -0.025047
v 0.098322 0.418903 -0.025047
v 0.079705 0.414375 -0.000757
v 0.096522 0.395748 -0.021605
v 0.063722 0.386186 -0.058566
v 0.062167 0.416638 -0.063803
v 0.000012 0.381313 0.079250
v 0.035653 0.381321 0.072562
v 0.013326 0.312549 0.006561
v 0.000012 0.310024 0.005659
v -0.013302 0.312549 0.006561
v 0.000012 0.404038 0.082705
v -0.056796 0.486782 0.062040
v -0.049475 0.425795 0.061217
v 0.000012 0.486948 0.083359
v 0.000012 0.425732 0.081673
v 0.000012 0.425806 -0.077201
v -0.061085 0.425872 -0.053904
v 0.000012 0.488602 -0.080957
v -0.069775 0.486805 -0.053414
v -0.094828 0.486634 -0.002789
v -0.085042 0.425889 -0.001325
v 0.000012 0.410787 -0.065838
v -0.053561 0.413348 -0.045777
v -0.079682 0.414375 -0.000757
v -0.045266 0.408629 0.051807
v 0.000012 0.404770 0.069319
v 0.056819 0.486782 0.062040
v 0.049498 0.425795 0.061217
v 0.069799 0.486805 -0.053414
v 0.061109 0.425872 -0.053904
v 0.085065 0.425889 -0.001325
v 0.094852 0.486634 -0.002789
v 0.053584 0.413348 -0.045777
v 0.079705 0.414375 -0.000757
v 0.045289 0.408629 0.051807
vt 0.202910 0.775306
vt 0.164040 0.799426
vt 0.148327 0.747642
vt 0.200472 0.827069
vt 0.123956 0.763130
vt 0.162797 0.860036
vt 0.096987 0.780269
vt 0.104611 0.836936
vt 0.266791 0.026031
vt 0.257329 0.023250
vt 0.270622 0.023249
vt 0.252555 0.027758
vt 0.279097 0.026851
vt 0.247822 0.025146
vt 0.279126 0.023425
vt 0.244730 0.031931
vt 0.270622 0.023249
vt 0.240875 0.030330
vt 0.266791 0.026031
vt 0.232668 0.039670
vt 0.257329 0.023250
vt 0.232394 0.038597
vt 0.234012 0.041107
vt 0.252555 0.027758
vt 0.240875 0.030330
vt 0.244730 0.031931
vt 0.247822 0.025146
vt 0.168337 0.220590
vt 0.176626 0.221472
vt 0.168506 0.225947
vt 0.176818 0.221770
vt 0.180616 0.227671
vt 0.180616 0.227671
vt 0.173019 0.215870
vt 0.173019 0.215870
vt 0.169069 0.232275
vt 0.168168 0.215232
vt 0.181369 0.232970
vt 0.188134 0.233490
vt 0.181369 0.232970
vt 0.188134 0.233490
vt 0.215040 0.220705
vt 0.215040 0.231599
vt 0.201681 0.223699
vt 0.201681 0.223699
vt 0.201780 0.239787
vt 0.201780 0.239787
vt 0.215270 0.240031
vt 0.195962 0.254179
vt 0.195962 0.254179
vt 0.185075 0.255707
vt 0.185075 0.255707
vt 0.215104 0.254463
vt 0.799721 0.023564
vt 0.881259 0.001359
vt 0.801819 0.091482
vt 0.691187 0.016294
vt 0.916659 0.071231
vt 0.691187 0.101268
vt 0.924876 0.000814
vt 0.615025 0.004793
vt 0.997655 0.067843
vt 0.617686 0.102790
vt 0.997911 0.000814
vt 0.483352 0.103947
vt 0.476545 0.000940
vt 0.615025 0.004793
vt 0.617686 0.102790
vt 0.691187 0.101268
vt 0.997911 0.001896
vt 0.924876 0.001896
vt 0.997655 0.067843
vt 0.691187 0.016294
vt 0.916659 0.071231
vt 0.801819 0.091482
vt 0.881259 0.001359
vt 0.799721 0.023564
vt 0.202910 0.775306
vt 0.148327 0.747642
vt 0.164040 0.799426
vt 0.200472 0.827069
vt 0.122657 0.763956
vt 0.162797 0.860036
vt 0.096987 0.780269
vt 0.104611 0.836936
vt 0.392017 0.504113
vt 0.507092 0.503973
vt 0.392017 0.469246
vt 0.507646 0.549127
vt 0.506842 0.469093
vt 0.392017 0.549366
vt 0.507092 0.503973
vt 0.552700 0.504113
vt 0.392017 0.578344
vt 0.392017 0.504113
vt 0.552700 0.469026
vt 0.507320 0.577937
vt 0.507646 0.549127
vt 0.552700 0.549366
vt 0.392017 0.613854
vt 0.552700 0.504113
vt 0.552700 0.578344
vt 0.507502 0.613854
vt 0.552700 0.549366
vt 0.392017 0.549366
vt 0.507320 0.577937
vt 0.552700 0.578344
vt 0.392017 0.578344
vt 0.552700 0.613854
vn -0.8940 -0.3721 -0.2496
vn -0.7039 -0.6797 0.2060
vn -0.9469 -0.1688 0.2735
vn -0.4863 -0.8220 -0.2962
vn -0.7718 -0.1912 0.6065
vn -0.1885 -0.9810 -0.0467
vn -0.5385 -0.4328 0.7229
vn -0.2610 -0.8711 0.4160
vn 0.0735 0.9918 0.1043
vn 0.1191 0.9916 0.0491
vn 0.0454 0.9925 0.1135
vn 0.1496 0.9872 0.0547
vn 0.0000 0.9973 0.0728
vn 0.1586 0.9849 0.0697
vn 0.0000 0.9985 0.0546
vn 0.1429 0.9850 0.0963
vn -0.0454 0.9925 0.1135
vn 0.1468 0.9813 0.1247
vn -0.0735 0.9918 0.1043
vn 0.0000 0.9678 0.2516
vn -0.1191 0.9916 0.0491
vn 0.0000 0.8777 0.4791
vn 0.0000 0.9966 -0.0822
vn -0.1496 0.9872 0.0547
vn -0.1468 0.9813 0.1247
vn -0.1429 0.9850 0.0963
vn -0.1586 0.9849 0.0697
vn 0.0001 -0.9546 -0.2980
vn -0.3717 -0.8415 -0.3921
vn -0.0014 -0.6458 -0.7635
vn 0.3744 -0.8334 -0.4065
vn -0.4922 -0.4247 -0.7598
vn 0.4917 -0.4205 -0.7625
vn 0.2542 -0.9636 -0.0830
vn -0.2504 -0.9647 -0.0817
vn 0.0000 -0.3453 -0.9385
vn 0.0000 -0.9980 -0.0630
vn -0.5727 -0.2989 -0.7632
vn -0.7555 -0.2492 -0.6059
vn 0.5727 -0.2989 -0.7632
vn 0.7555 -0.2492 -0.6059
vn 0.0000 -0.8261 0.5635
vn 0.0000 -0.7902 0.6128
vn -0.1747 -0.8019 0.5712
vn 0.1747 -0.8019 0.5712
vn -0.3655 -0.6971 0.6168
vn 0.3655 -0.6971 0.6168
vn 0.0000 -0.6818 0.7315
vn -0.3847 -0.6106 0.6921
vn 0.3847 -0.6106 0.6921
vn -0.4942 -0.6399 0.5884
vn 0.4942 -0.6399 0.5884
vn 0.0000 -0.4843 0.8749
vn -0.8718 -0.2383 0.4281
vn -0.6220 -0.1298 0.7721
vn -0.8786 -0.1931 0.4367
vn -0.9472 -0.1307 -0.2929
vn -0.4407 -0.1197 0.8896
vn -0.9352 -0.1068 -0.3377
vn -0.3779 -0.1380 0.9155
vn -0.5218 -0.1052 -0.8465
vn -0.1921 -0.1326 0.9724
vn -0.5023 -0.1216 -0.8561
vn -0.1824 -0.1478 0.9720
vn 0.0000 -0.0492 -0.9988
vn 0.0000 -0.0085 -0.9999
vn 0.5218 -0.1052 -0.8465
vn 0.5023 -0.1216 -0.8561
vn 0.9352 -0.1068 -0.3377
vn 0.1824 -0.1478 0.9720
vn 0.3779 -0.1380 0.9155
vn 0.1921 -0.1326 0.9724
vn 0.9472 -0.1307 -0.2929
vn 0.4407 -0.1197 0.8896
vn 0.8786 -0.1931 0.4367
vn 0.6220 -0.1298 0.7721
vn 0.8718 -0.2383 0.4281
vn 0.8940 -0.3721 -0.2496
vn 0.9465 -0.1686 0.2751
vn 0.7041 -0.6796 0.2058
vn 0.4863 -0.8220 -0.2962
vn 0.7674 -0.1946 0.6108
vn 0.1885 -0.9810 -0.0467
vn 0.5367 -0.4348 0.7231
vn 0.2610 -0.8711 0.4160
vn -0.6564 -0.0930 0.7486
vn -0.6182 -0.2809 0.7340
vn 0.0000 -0.0443 0.9990
vn -0.9558 -0.2923 0.0298
vn 0.0000 -0.2616 0.9651
vn -0.9870 -0.1584 0.0266
vn 0.6182 -0.2809 0.7340
vn -0.5964 -0.4891 0.6365
vn -0.6935 -0.1022 -0.7131
vn 0.6564 -0.0930 0.7486
vn 0.0000 -0.5170 0.8560
vn -0.6253 -0.3716 -0.6862
vn 0.9558 -0.2923 0.0298
vn -0.9066 -0.4200 0.0419
vn 0.0000 -0.0541 -0.9985
vn 0.5964 -0.4891 0.6365
vn -0.5174 -0.6432 -0.5644
vn 0.0000 -0.3324 -0.9431
vn 0.9066 -0.4200 0.0420
vn 0.9870 -0.1584 0.0266
vn 0.6253 -0.3716 -0.6862
vn 0.5174 -0.6432 -0.5644
vn 0.6935 -0.1022 -0.7131
vn 0.0000 -0.6034 -0.7974
usemtl Material.001
s 1
f 1/1/1 2/2/2 3/3/3
f 2/2/2 1/1/1 29/4/4
f 2/2/2 16/5/5 3/3/3
f 2/2/2 29/4/4 30/6/6
f 2/2/2 15/7/7 16/5/5
f 2/2/2 30/6/6 38/8/8
f 2/2/2 38/8/8 15/7/7
f 4/9/9 5/10/10 6/11/11
f 4/9/9 36/12/12 5/10/10
f 4/9/9 6/11/11 43/13/13
f 5/10/10 36/12/12 37/14/14
f 43/13/13 6/11/11 44/15/15
f 36/12/12 26/16/16 37/14/14
f 53/17/17 43/13/13 44/15/15
f 37/14/14 26/16/16 24/18/18
f 52/19/19 43/13/13 53/17/17
f 24/18/18 26/16/16 25/20/20
f 52/19/19 53/17/17 54/21/21
f 23/22/22 24/18/18 25/20/20
f 26/16/16 27/23/23 25/20/20
f 54/21/21 76/24/24 52/19/19
f 23/22/22 25/20/20 66/25/25
f 25/20/20 27/23/23 67/26/26
f 66/25/25 25/20/20 67/26/26
f 75/27/27 76/24/24 54/21/21
f 66/25/25 67/26/26 75/27/27
f 75/27/27 67/26/26 76/24/24
f 7/28/28 8/29/29 9/30/30
f 9/30/30 56/31/31 7/28/28
f 9/30/30 8/29/29 10/32/32
f 55/33/33 56/31/31 9/30/30
f 56/31/31 82/34/34 7/28/28
f 8/29/29 7/28/28 84/35/35
f 10/32/32 22/36/36 9/30/30
f 9/30/30 22/36/36 55/33/33
f 7/28/28 82/34/34 83/37/37
f 84/35/35 7/28/28 83/37/37
f 21/38/38 22/36/36 10/32/32
f 28/39/39 21/38/38 10/32/32
f 55/33/33 22/36/36 65/40/40
f 68/41/41 55/33/33 65/40/40
f 11/42/42 12/43/43 13/44/44
f 58/45/45 12/43/43 11/42/42
f 13/44/44 12/43/43 14/46/46
f 57/47/47 12/43/43 58/45/45
f 35/48/48 14/46/46 12/43/43
f 35/48/48 12/43/43 57/47/47
f 35/48/48 31/49/49 14/46/46
f 57/47/47 71/50/50 35/48/48
f 31/49/49 32/51/51 14/46/46
f 71/50/50 57/47/47 72/52/52
f 45/53/53 31/49/49 35/48/48
f 35/48/48 71/50/50 45/53/53
f 17/54/54 18/55/55 19/56/56
f 17/54/54 19/56/56 33/57/57
f 19/56/56 18/55/55 20/58/58
f 33/57/57 19/56/56 34/59/59
f 20/58/58 18/55/55 48/60/60
f 33/57/57 34/59/59 41/61/61
f 48/60/60 47/62/62 20/58/58
f 41/61/61 34/59/59 39/63/63
f 46/64/64 47/62/62 48/60/60
f 39/63/63 40/65/65 41/61/61
f 41/61/61 40/65/65 42/66/66
f 42/66/66 40/65/65 78/67/67
f 78/67/67 40/65/65 79/68/68
f 79/68/68 74/69/69 78/67/67
f 80/70/70 81/71/71 85/72/72
f 78/67/67 74/69/69 73/73/73
f 85/72/72 81/71/71 64/74/74
f 62/75/75 73/73/73 74/69/69
f 63/76/76 64/74/74 81/71/71
f 63/76/76 62/75/75 64/74/74
f 61/77/77 73/73/73 62/75/75
f 61/77/77 62/75/75 63/76/76
f 49/78/78 50/79/79 51/80/80
f 51/80/80 70/81/81 49/78/78
f 51/80/80 50/79/79 59/82/82
f 51/80/80 69/83/83 70/81/81
f 51/80/80 59/82/82 60/84/84
f 51/80/80 77/85/85 69/83/83
f 51/80/80 60/84/84 77/85/85
f 86/86/86 87/87/87 88/88/88
f 86/86/86 95/89/89 87/87/87
f 88/88/88 87/87/87 89/90/90
f 94/91/91 95/89/89 86/86/86
f 102/92/92 88/88/88 89/90/90
f 95/89/89 99/93/93 87/87/87
f 93/94/94 95/89/89 94/91/91
f 101/95/95 88/88/88 102/92/92
f 89/90/90 87/87/87 100/96/96
f 100/96/96 87/87/87 99/93/93
f 91/97/97 95/89/89 93/94/94
f 102/92/92 105/98/98 101/95/95
f 100/96/96 102/92/92 89/90/90
f 98/99/99 99/93/93 95/89/89
f 92/100/100 91/97/97 93/94/94
f 109/101/101 102/92/92 100/96/96
f 109/101/101 105/98/98 102/92/92
f 98/99/99 95/89/89 97/102/102
f 97/102/102 95/89/89 91/97/97
f 90/103/103 91/97/97 92/100/100
f 108/104/104 105/98/98 109/101/101
f 101/95/95 105/98/98 106/105/105
f 90/103/103 97/102/102 91/97/97
f 92/100/100 104/106/106 90/103/103
f 108/104/104 107/107/107 105/98/98
f 106/105/105 105/98/98 103/108/108
f 96/109/109 97/102/102 90/103/103
f 103/108/108 104/106/106 92/100/100
f 96/109/109 90/103/103 107/107/107
f 103/108/108 105/98/98 104/106/106
f 107/107/107 90/103/103 104/106/106
f 105/98/98 107/107/107 104/106/106
