# Blender v2.79 (sub 0) OBJ File: 'buzz.blend'
# www.blender.org
mtllib buzzlightyLeftCalf.mtl
o buzzlightyLeftCalf_buzzlighty.002
v 0.098114 0.065298 -0.064757
v 0.069078 0.101949 -0.012738
v 0.069117 0.093572 -0.032547
v 0.113739 0.084560 -0.001890
v 0.125571 0.085084 -0.001896
v 0.113482 0.091434 -0.034137
v 0.125314 0.091958 -0.034143
v 0.126040 0.071323 -0.057321
v 0.127022 0.043813 -0.048252
v 0.114208 0.070798 -0.057315
v 0.115190 0.043288 -0.048246
v 0.115447 0.036414 -0.015999
v 0.127278 0.036939 -0.016005
v 0.114721 0.057050 0.007179
v 0.126553 0.057575 0.007173
v 0.126040 0.071323 -0.057321
v 0.125314 0.091958 -0.034143
v 0.126553 0.057575 0.007173
v 0.125571 0.085084 -0.001896
v 0.114208 0.070798 -0.057315
v 0.127022 0.043813 -0.048252
v 0.115190 0.043288 -0.048246
v 0.127278 0.036939 -0.016005
v 0.127022 0.043813 -0.048252
v 0.115190 0.043288 -0.048246
v 0.115447 0.036414 -0.015999
v 0.014231 0.081884 -0.001844
v 0.026064 0.082409 -0.001850
v 0.013975 0.088759 -0.034095
v 0.025808 0.089284 -0.034101
v 0.026534 0.068645 -0.057282
v 0.027516 0.041132 -0.048212
v 0.014700 0.068120 -0.057276
v 0.015682 0.040607 -0.048206
v 0.015939 0.033732 -0.015955
v 0.027772 0.034249 -0.015959
v 0.015213 0.054371 0.007226
v 0.027047 0.054895 0.007220
v 0.026534 0.068645 -0.057282
v 0.025808 0.089284 -0.034101
v 0.027047 0.054895 0.007220
v 0.026064 0.082409 -0.001850
v 0.014231 0.081884 -0.001844
v 0.013975 0.088759 -0.034095
v 0.015213 0.054371 0.007226
v 0.014700 0.068120 -0.057276
v 0.027516 0.041132 -0.048212
v 0.015682 0.040607 -0.048206
v 0.027772 0.034249 -0.015959
v 0.027516 0.041132 -0.048212
v 0.015682 0.040607 -0.048206
v 0.015939 0.033732 -0.015955
v 0.113739 0.084560 -0.001890
v 0.113482 0.091434 -0.034137
v 0.114721 0.057050 0.007179
v 0.114208 0.070798 -0.057315
v 0.115447 0.036414 -0.015999
v 0.026054 0.069384 0.031799
v 0.026850 0.197122 -0.013824
v 0.020045 0.050285 -0.024192
v 0.066389 0.178435 -0.047234
v 0.045882 0.181246 -0.041716
v 0.065934 0.189438 0.013484
v 0.091211 0.188716 0.042366
v 0.066599 0.174725 0.049367
v 0.113424 0.074088 0.036511
v 0.069993 0.078628 0.052330
v 0.099456 0.225344 0.027646
v 0.091211 0.188716 0.042366
v 0.104192 0.199889 -0.013853
v 0.113424 0.074088 0.036511
v 0.086589 0.182703 -0.041731
v 0.104192 0.199889 -0.013853
v 0.044234 0.215085 0.050485
v 0.026059 0.217515 0.019653
v 0.041387 0.187221 0.042381
v 0.064788 0.215933 0.061233
v 0.066599 0.174725 0.049367
v 0.026850 0.197122 -0.013824
v 0.045882 0.181246 -0.041716
v 0.020045 0.050285 -0.024192
v 0.033190 0.071435 -0.078140
v 0.045882 0.181246 -0.041716
v 0.066389 0.178435 -0.047234
v 0.033190 0.071435 -0.078140
v 0.069832 0.081068 -0.098422
v 0.107668 0.074378 -0.078175
v 0.086589 0.182703 -0.041731
v 0.121950 0.054362 -0.024238
v 0.104192 0.199889 -0.013853
v 0.091211 0.188716 0.042366
v 0.085344 0.216556 0.050469
v 0.088162 0.247325 0.045082
v 0.099456 0.225344 0.027646
v 0.099456 0.225344 0.027646
v 0.088162 0.247325 0.045082
v 0.026059 0.217515 0.019653
v 0.038710 0.245556 0.045101
v 0.026850 0.197122 -0.013824
v 0.062792 0.261117 0.055767
v 0.062792 0.261117 0.055767
v 0.038710 0.245556 0.045101
v 0.069993 0.078628 0.052330
v 0.069389 0.067697 0.040097
v 0.113424 0.074088 0.036511
v 0.103569 0.065166 0.022624
v 0.086589 0.182703 -0.041731
v 0.107668 0.074378 -0.078175
v 0.107668 0.074378 -0.078175
v 0.121950 0.054362 -0.024238
v 0.098114 0.065298 -0.064757
v 0.117810 0.045117 -0.025086
v 0.069832 0.081068 -0.098422
v 0.069227 0.070400 -0.087343
v 0.033190 0.071435 -0.078140
v 0.039991 0.060669 -0.067631
v 0.024606 0.043177 -0.024669
v 0.020045 0.050285 -0.024192
v 0.032993 0.059693 0.020556
v 0.026054 0.069384 0.031799
v 0.026054 0.069384 0.031799
v 0.041387 0.187221 0.042381
v 0.098114 0.065298 -0.064757
v 0.117810 0.045117 -0.025086
v 0.069077 0.101949 -0.012738
v 0.103569 0.065166 0.022624
v 0.069389 0.067697 0.040097
v 0.032993 0.059693 0.020556
v 0.024606 0.043177 -0.024669
v 0.039991 0.060669 -0.067631
v 0.069227 0.070400 -0.087343
v 0.069117 0.093572 -0.032547
v 0.041387 0.187221 0.042381
v 0.026059 0.217515 0.019653
v 0.121950 0.054362 -0.024238
v 0.038349 0.220472 0.019635
v 0.026767 0.215200 -0.008037
v 0.039415 0.193671 0.009907
v 0.062664 0.255967 0.006354
v 0.088743 0.244573 0.001940
v 0.063091 0.248958 -0.034093
v 0.089035 0.239785 -0.025685
v 0.064651 0.209719 -0.048335
v 0.090101 0.212984 -0.035413
v 0.039706 0.188884 -0.017718
v 0.089517 0.222559 0.019838
v 0.101683 0.218256 -0.007741
v 0.088743 0.244573 0.001940
v 0.089035 0.239785 -0.025685
v 0.090101 0.212984 -0.035413
v 0.090583 0.195759 0.010110
v 0.037866 0.237698 -0.025888
v 0.037574 0.242485 0.001738
v 0.038932 0.210897 -0.035615
v 0.037866 0.237698 -0.025888
v 0.038932 0.210897 -0.035615
v 0.037574 0.242485 0.001738
v 0.038349 0.220472 0.019635
v 0.063798 0.223738 0.032557
v 0.090875 0.190971 -0.017515
v 0.065785 0.177489 -0.022131
v 0.065358 0.184499 0.018315
v 0.039706 0.188884 -0.017718
v 0.039415 0.193671 0.009907
v 0.063798 0.223738 0.032557
v 0.038349 0.220472 0.019635
v 0.089517 0.222559 0.019838
v 0.090583 0.195759 0.010110
v 0.089517 0.222559 0.019838
v 0.090875 0.190971 -0.017515
vt 0.400813 0.366847
vt 0.400581 0.376772
vt 0.374864 0.393670
vt 0.841451 0.788160
vt 0.847645 0.787917
vt 0.841450 0.776705
vt 0.847639 0.798767
vt 0.847644 0.776793
vt 0.841450 0.799091
vt 0.847644 0.765824
vt 0.847644 0.809972
vt 0.841450 0.765502
vt 0.841450 0.810063
vt 0.847644 0.754894
vt 0.841449 0.754651
vt 0.841450 0.821184
vt 0.847645 0.821427
vt 0.800675 0.151665
vt 0.773122 0.104117
vt 0.699550 0.151665
vt 0.724151 0.104117
vt 0.723544 0.104117
vt 0.773729 0.104117
vt 0.773550 0.104117
vt 0.723971 0.104117
vt 0.800496 0.151665
vt 0.841451 0.788160
vt 0.847645 0.787917
vt 0.841450 0.776705
vt 0.847639 0.798767
vt 0.847644 0.776793
vt 0.841450 0.799091
vt 0.847644 0.765824
vt 0.847644 0.809972
vt 0.841450 0.765502
vt 0.841450 0.810063
vt 0.847644 0.754894
vt 0.841449 0.754651
vt 0.841450 0.821184
vt 0.847645 0.821427
vt 0.800675 0.151665
vt 0.773122 0.104117
vt 0.699550 0.151665
vt 0.724151 0.104117
vt 0.723544 0.104117
vt 0.773729 0.104117
vt 0.723364 0.104117
vt 0.772943 0.104117
vt 0.699371 0.151665
vt 0.800496 0.151665
vt 0.723971 0.104117
vt 0.773550 0.104117
vt 0.723364 0.104117
vt 0.772943 0.104117
vt 0.699371 0.151665
vt 0.800496 0.151665
vt 0.723971 0.104117
vt 0.485583 0.115220
vt 0.563314 0.306248
vt 0.564404 0.115220
vt 0.488557 0.272005
vt 0.501641 0.327445
vt 0.162367 0.860346
vt 0.192157 0.852987
vt 0.140572 0.812586
vt 0.129706 0.856117
vt 0.212702 0.823052
vt 0.094047 0.828998
vt 0.203605 0.788499
vt 0.088577 0.785701
vt 0.178115 0.756370
vt 0.102249 0.760172
vt 0.140329 0.744711
vt 0.525791 0.271163
vt 0.570274 0.249479
vt 0.495432 0.115220
vt 0.570274 0.115220
vt 0.525791 0.271163
vt 0.495432 0.115220
vt 0.497281 0.327445
vt 0.484197 0.274277
vt 0.558954 0.306248
vt 0.481223 0.115220
vt 0.560044 0.115220
vt 0.534084 0.230050
vt 0.472791 0.234148
vt 0.527845 0.190098
vt 0.570553 0.230369
vt 0.523339 0.262858
vt 0.570543 0.182279
vt 0.570448 0.277475
vt 0.526872 0.190087
vt 0.522275 0.262766
vt 0.533129 0.230012
vt 0.479448 0.240484
vt 0.501405 0.307632
vt 0.550454 0.289533
vt 0.475278 0.115220
vt 0.538389 0.115220
vt 0.534465 0.289770
vt 0.569740 0.284765
vt 0.505381 0.115220
vt 0.569740 0.115220
vt 0.505381 0.115220
vt 0.534465 0.289770
vt 0.538389 0.115220
vt 0.550454 0.289533
vt 0.475278 0.115220
vt 0.501405 0.307632
vt 0.400030 0.330149
vt 0.399815 0.343772
vt 0.366962 0.340087
vt 0.433529 0.342795
vt 0.377441 0.350185
vt 0.423643 0.353938
vt 0.352941 0.373828
vt 0.441954 0.373828
vt 0.367751 0.374257
vt 0.429139 0.374078
vt 0.374864 0.393670
vt 0.425236 0.394970
vt 0.364740 0.401048
vt 0.433253 0.401561
vt 0.399939 0.404228
vt 0.400428 0.417995
vt 0.374864 0.393670
vt 0.367751 0.374257
vt 0.400813 0.366847
vt 0.377441 0.350185
vt 0.425236 0.394970
vt 0.400581 0.376772
vt 0.399939 0.404228
vt 0.399815 0.343772
vt 0.429139 0.374078
vt 0.423643 0.353938
vt 0.450962 0.940219
vt 0.471094 0.904122
vt 0.490743 0.940540
vt 0.429759 0.904122
vt 0.511346 0.904122
vt 0.450001 0.940047
vt 0.491524 0.940922
vt 0.582794 0.677293
vt 0.582794 0.717669
vt 0.568077 0.677293
vt 0.582794 0.717669
vt 0.568077 0.717669
vt 0.597841 0.677293
vt 0.553457 0.677293
vt 0.568077 0.717669
vt 0.597841 0.717669
vt 0.597841 0.717669
vt 0.553457 0.717669
vt 0.553457 0.717669
vt 0.538804 0.717669
vt 0.538804 0.717669
vt 0.538804 0.677293
vt 0.523998 0.677293
vt 0.523998 0.717669
vt 0.523998 0.717669
vt 0.512596 0.677293
vt 0.512596 0.717669
vt 0.512596 0.717669
vt 0.429238 0.904122
vt 0.470572 0.904122
vt 0.450440 0.940176
vt 0.449479 0.940003
vt 0.490221 0.940496
vt 0.491002 0.940878
vt 0.510825 0.904122
vn -0.4228 -0.8349 0.3522
vn -0.0326 0.7423 0.6693
vn -0.0327 0.7448 0.6665
vn -0.0429 0.9656 -0.2565
vn 0.0118 -0.2563 0.9665
vn -0.0430 0.9659 -0.2553
vn 0.0121 -0.2620 0.9650
vn -0.0121 0.2620 -0.9650
vn 0.0429 -0.9656 0.2565
vn -0.0118 0.2563 -0.9665
vn 0.0430 -0.9659 0.2553
vn 0.0134 -0.3126 -0.9498
vn 0.0432 -0.9770 -0.2086
vn 0.9994 0.0356 -0.0004
vn -0.9994 -0.0356 0.0004
vn 0.0118 -0.2562 0.9666
vn 0.0120 -0.2619 0.9650
vn 0.0424 -0.9656 0.2565
vn 0.0423 -0.9659 0.2553
vn 0.0431 -0.9770 -0.2088
vn 0.0432 -0.9770 -0.2088
vn 0.9994 0.0355 -0.0004
vn 0.9994 0.0356 -0.0003
vn -0.9897 0.0534 0.1322
vn -0.9760 -0.0587 0.2098
vn -0.9948 0.0395 0.0933
vn -0.9690 -0.0339 0.2446
vn -0.9255 -0.3327 0.1808
vn -0.0355 0.9833 -0.1784
vn 0.1946 0.9575 -0.2128
vn -0.0342 0.8312 -0.5549
vn -0.2635 0.9408 -0.2133
vn 0.4095 0.8429 -0.3490
vn -0.4772 0.8008 -0.3617
vn 0.3612 0.6581 -0.6606
vn -0.3371 0.6007 -0.7249
vn 0.1199 0.5308 -0.8389
vn -0.1274 0.5124 -0.8492
vn -0.0181 0.5074 -0.8615
vn 0.2718 0.0035 0.9623
vn 0.0146 0.0166 0.9997
vn 0.3313 0.0337 0.9429
vn -0.0308 0.0107 0.9995
vn -0.3121 0.0048 0.9500
vn -0.4185 -0.0270 0.9078
vn 0.9705 -0.1396 0.1963
vn 0.9701 0.0579 0.2355
vn 0.9769 0.0561 0.2061
vn 0.9824 0.1268 0.1368
vn 0.9883 0.1133 0.1019
vn -0.6550 -0.0699 0.7523
vn -0.8619 -0.0631 0.5031
vn -0.5938 -0.1911 0.7815
vn 0.0016 -0.0621 0.9980
vn -0.6235 0.0307 0.7812
vn 0.0098 -0.2763 0.9610
vn -0.0067 0.1198 0.9928
vn 0.5657 -0.1481 0.8112
vn 0.6023 0.0895 0.7932
vn 0.6475 -0.0068 0.7620
vn 0.8472 0.0186 0.5310
vn -0.8019 0.0790 -0.5922
vn -0.8511 0.0989 -0.5156
vn -0.9542 0.1539 -0.2564
vn -0.9708 0.1687 -0.1704
vn -0.2030 0.3293 -0.9221
vn -0.0139 0.3661 -0.9304
vn -0.4846 0.3782 -0.7887
vn -0.0228 0.4646 -0.8852
vn 0.4483 0.4135 -0.7925
vn 0.1782 0.3447 -0.9216
vn 0.9565 0.2412 -0.1638
vn 0.8437 0.1627 -0.5115
vn 0.9416 0.2253 -0.2501
vn 0.7963 0.1392 -0.5886
vn 0.0160 -0.7460 0.6658
vn -0.0023 -0.7691 0.6391
vn 0.2221 -0.8655 0.4489
vn -0.2723 -0.7973 0.5387
vn 0.2892 -0.8737 0.3910
vn -0.4212 -0.7929 0.4402
vn 0.8604 -0.5074 -0.0470
vn -0.8154 -0.5769 -0.0482
vn 0.9110 -0.3981 -0.1074
vn -0.8408 -0.5333 -0.0921
vn 0.2776 -0.8571 -0.4339
vn -0.4194 -0.7465 -0.5165
vn 0.2305 -0.8531 -0.4680
vn -0.2998 -0.7505 -0.5889
vn 0.0110 -0.7465 -0.6652
vn 0.0328 -0.7208 -0.6923
vn -0.6013 -0.7714 0.2079
vn -0.7534 -0.6559 0.0456
vn 0.0960 -0.9894 -0.1087
vn -0.5880 -0.7748 -0.2324
vn 0.6471 -0.7333 0.2085
vn 0.3571 -0.8600 0.3644
vn 0.0701 -0.9187 0.3886
vn 0.0676 -0.8370 -0.5430
vn 0.7908 -0.6096 0.0551
vn 0.6641 -0.7215 -0.1960
vn -0.9240 0.0300 0.3811
vn -0.9992 -0.0387 -0.0039
vn -0.9112 -0.3322 0.2437
vn -0.9369 0.3244 0.1303
vn -0.9080 -0.3957 -0.1378
vn -0.9322 0.2611 -0.2505
vn -0.9160 -0.1004 -0.3884
vn -0.0389 0.9361 0.3495
vn 0.4242 0.8490 0.3150
vn -0.0282 0.7672 -0.6408
vn -0.4936 0.8120 0.3113
vn 0.4319 0.6980 -0.5712
vn -0.0291 0.6299 0.7761
vn 0.0106 -0.1667 -0.9859
vn -0.4821 0.6612 -0.5748
vn -0.4311 0.5600 0.7074
vn 0.3789 0.5918 0.7114
vn 0.4621 -0.1292 -0.8773
vn -0.4433 -0.1655 -0.8809
vn 0.4936 -0.8120 -0.3113
vn -0.4242 -0.8490 -0.3150
vn 0.0389 -0.9361 -0.3495
vn 0.0282 -0.7672 0.6408
vn 0.4821 -0.6612 0.5747
vn -0.4319 -0.6980 0.5712
vn 0.0107 -0.3408 0.9401
vn 0.4125 -0.2962 0.8614
vn -0.3941 -0.3274 0.8588
vn 0.9160 0.1004 0.3884
vn 0.9992 0.0387 0.0039
vn 0.9080 0.3957 0.1378
vn 0.9322 -0.2611 0.2505
vn 0.9112 0.3322 -0.2437
vn 0.9369 -0.3244 -0.1303
vn 0.9240 -0.0300 -0.3811
usemtl Material.001
s 1
f 2/1/1 3/2/1 1/3/1
f 4/4/2 5/5/3 6/6/4
f 4/4/2 15/7/5 5/5/3
f 6/6/4 5/5/3 7/8/6
f 14/9/7 15/7/5 4/4/2
f 7/8/6 8/10/8 6/6/4
f 14/9/7 13/11/9 15/7/5
f 6/6/4 8/10/8 10/12/10
f 12/13/11 13/11/9 14/9/7
f 8/10/8 9/14/12 10/12/10
f 10/12/10 9/14/12 11/15/12
f 22/16/13 13/11/9 12/13/11
f 21/17/13 13/11/9 22/16/13
f 16/18/14 17/19/14 18/20/14
f 18/20/14 23/21/14 16/18/14
f 18/20/14 17/19/14 19/22/14
f 16/18/14 23/21/14 24/23/14
f 25/24/15 26/25/15 20/26/15
f 27/27/2 28/28/3 29/29/4
f 27/27/2 38/30/16 28/28/3
f 29/29/4 28/28/3 30/31/6
f 37/32/17 38/30/16 27/27/2
f 30/31/6 31/33/8 29/29/4
f 37/32/17 36/34/18 38/30/16
f 29/29/4 31/33/8 33/35/10
f 35/36/19 36/34/18 37/32/17
f 31/33/8 32/37/12 33/35/10
f 33/35/10 32/37/12 34/38/12
f 48/39/20 36/34/18 35/36/19
f 47/40/21 36/34/18 48/39/20
f 39/41/22 40/42/14 41/43/22
f 41/43/22 49/44/22 39/41/22
f 41/43/22 40/42/14 42/45/14
f 39/41/22 49/44/22 50/46/23
f 43/47/15 44/48/15 45/49/15
f 45/49/15 44/48/15 46/50/15
f 46/50/15 52/51/15 45/49/15
f 51/52/15 52/51/15 46/50/15
f 53/53/15 54/54/15 55/55/15
f 55/55/15 54/54/15 56/56/15
f 56/56/15 57/57/15 55/55/15
f 58/58/24 59/59/25 60/60/26
f 58/58/24 133/61/27 59/59/25
f 59/59/25 133/61/27 134/62/28
f 61/63/29 62/64/30 63/65/31
f 61/63/29 63/65/31 72/66/32
f 62/64/30 99/67/33 63/65/31
f 72/66/32 63/65/31 73/68/34
f 99/67/33 97/69/35 63/65/31
f 63/65/31 94/70/36 73/68/34
f 97/69/35 98/71/37 63/65/31
f 63/65/31 93/72/38 94/70/36
f 63/65/31 98/71/37 101/73/39
f 93/72/38 63/65/31 101/73/39
f 64/74/40 65/75/41 66/76/42
f 66/76/42 65/75/41 67/77/43
f 122/78/44 67/77/43 65/75/41
f 121/79/45 67/77/43 122/78/44
f 68/80/46 69/81/47 70/82/48
f 70/82/48 69/81/47 71/83/49
f 71/83/49 135/84/50 70/82/48
f 74/85/51 75/86/52 76/87/53
f 74/85/51 76/87/53 77/88/54
f 75/86/52 74/85/51 102/89/55
f 74/85/51 77/88/54 102/89/55
f 77/88/54 76/87/53 78/90/56
f 102/89/55 77/88/54 100/91/57
f 78/90/56 91/92/58 77/88/54
f 100/91/57 77/88/54 96/93/59
f 77/88/54 91/92/58 92/94/60
f 96/93/59 77/88/54 92/94/60
f 92/94/60 91/92/58 95/95/61
f 92/94/60 95/95/61 96/93/59
f 79/96/62 80/97/63 81/98/64
f 81/98/64 80/97/63 82/99/65
f 83/100/66 84/101/67 85/102/68
f 85/102/68 84/101/67 86/103/69
f 84/101/67 108/104/70 86/103/69
f 107/105/71 108/104/70 84/101/67
f 87/106/72 88/107/73 89/108/74
f 89/108/74 88/107/73 90/109/75
f 103/110/76 104/111/77 105/112/78
f 103/110/76 120/113/79 104/111/77
f 105/112/78 104/111/77 106/114/80
f 104/111/77 120/113/79 119/115/81
f 105/112/78 106/114/80 110/116/82
f 118/117/83 119/115/81 120/113/79
f 110/116/82 106/114/80 112/118/84
f 117/119/85 119/115/81 118/117/83
f 111/120/86 110/116/82 112/118/84
f 117/119/85 118/117/83 116/121/87
f 109/122/88 110/116/82 111/120/86
f 116/121/87 118/117/83 115/123/89
f 114/124/90 109/122/88 111/120/86
f 115/123/89 114/124/90 116/121/87
f 113/125/91 109/122/88 114/124/90
f 113/125/91 114/124/90 115/123/89
f 123/126/92 124/127/93 125/128/94
f 126/129/95 125/128/94 124/127/93
f 130/130/96 132/131/97 125/128/94
f 123/126/92 132/131/97 131/132/98
f 131/132/98 132/131/97 130/130/96
f 127/133/99 125/128/94 126/129/95
f 125/128/94 129/134/100 130/130/96
f 128/135/101 125/128/94 127/133/99
f 125/128/94 128/135/101 129/134/100
f 136/136/102 137/137/103 138/138/104
f 153/139/105 137/137/103 136/136/102
f 138/138/104 137/137/103 145/140/106
f 152/141/107 137/137/103 153/139/105
f 145/140/106 137/137/103 154/142/108
f 154/142/108 137/137/103 152/141/107
f 139/143/109 140/144/110 141/145/111
f 139/143/109 141/145/111 157/146/112
f 141/145/111 140/144/110 142/147/113
f 157/146/112 159/148/114 139/143/109
f 159/148/114 140/144/110 139/143/109
f 141/145/111 142/147/113 143/149/115
f 157/146/112 141/145/111 155/150/116
f 141/145/111 143/149/115 155/150/116
f 158/151/117 159/148/114 157/146/112
f 167/152/118 140/144/110 159/148/114
f 143/149/115 142/147/113 144/153/119
f 155/150/116 143/149/115 156/154/120
f 144/153/119 170/155/121 143/149/115
f 156/154/120 143/149/115 163/156/122
f 143/149/115 170/155/121 161/157/123
f 163/156/122 143/149/115 161/157/123
f 161/157/123 170/155/121 162/158/124
f 161/157/123 162/158/124 163/156/122
f 162/158/124 170/155/121 168/159/125
f 163/156/122 162/158/124 164/160/126
f 162/158/124 168/159/125 165/161/127
f 162/158/124 165/161/127 164/160/126
f 165/161/127 168/159/125 169/162/128
f 164/160/126 165/161/127 166/163/129
f 146/164/130 147/165/131 148/166/132
f 151/167/133 147/165/131 146/164/130
f 148/166/132 147/165/131 149/168/134
f 160/169/135 147/165/131 151/167/133
f 149/168/134 147/165/131 150/170/136
f 150/170/136 147/165/131 160/169/135
