# Blender v2.79 (sub 0) OBJ File: 'buzz.blend'
# www.blender.org
mtllib buzzlightyRightCalf.mtl
o buzzlightyRightCalf_buzzlighty.026
v -0.038326 0.220478 0.019636
v -0.039392 0.193676 0.009908
v -0.026744 0.215206 -0.008037
v -0.062642 0.255974 0.006354
v -0.063069 0.248964 -0.034094
v -0.088722 0.244579 0.001940
v -0.089014 0.239791 -0.025686
v -0.064630 0.209724 -0.048336
v -0.090080 0.212990 -0.035414
v -0.039684 0.188889 -0.017718
v -0.089496 0.222565 0.019838
v -0.088722 0.244579 0.001940
v -0.101662 0.218262 -0.007741
v -0.089014 0.239791 -0.025686
v -0.090080 0.212990 -0.035414
v -0.090562 0.195764 0.010110
v -0.037843 0.237704 -0.025888
v -0.037552 0.242492 0.001738
v -0.038909 0.210902 -0.035616
v -0.038909 0.210902 -0.035616
v -0.037843 0.237704 -0.025888
v -0.037552 0.242492 0.001738
v -0.038326 0.220478 0.019636
v -0.063776 0.223744 0.032558
v -0.090854 0.190976 -0.017516
v -0.039392 0.193676 0.009908
v -0.065337 0.184504 0.018315
v -0.039684 0.188889 -0.017718
v -0.065764 0.177494 -0.022132
v -0.038326 0.220478 0.019636
v -0.063776 0.223744 0.032558
v -0.089496 0.222565 0.019838
v -0.090562 0.195764 0.010110
v -0.089496 0.222565 0.019838
v -0.090854 0.190976 -0.017516
v -0.026032 0.069386 0.031799
v -0.020022 0.050287 -0.024193
v -0.026827 0.197127 -0.013824
v -0.066367 0.178439 -0.047236
v -0.065912 0.189443 0.013484
v -0.045860 0.181251 -0.041717
v -0.091190 0.188720 0.042367
v -0.113403 0.074090 0.036512
v -0.066578 0.174729 0.049369
v -0.069972 0.078630 0.052332
v -0.099435 0.225350 0.027647
v -0.104171 0.199895 -0.013854
v -0.091190 0.188720 0.042367
v -0.113403 0.074090 0.036512
v -0.086568 0.182708 -0.041733
v -0.104171 0.199895 -0.013854
v -0.044212 0.215090 0.050486
v -0.041365 0.187226 0.042382
v -0.026037 0.217521 0.019653
v -0.064766 0.215939 0.061234
v -0.066578 0.174729 0.049369
v -0.026827 0.197127 -0.013824
v -0.020022 0.050287 -0.024193
v -0.045860 0.181251 -0.041717
v -0.033167 0.071437 -0.078142
v -0.045860 0.181251 -0.041717
v -0.033167 0.071437 -0.078142
v -0.066367 0.178439 -0.047236
v -0.069810 0.081070 -0.098425
v -0.104171 0.199895 -0.013854
v -0.086568 0.182708 -0.041733
v -0.121930 0.054363 -0.024238
v -0.107648 0.074380 -0.078177
v -0.085323 0.216561 0.050470
v -0.091190 0.188720 0.042367
v -0.099435 0.225350 0.027647
v -0.088141 0.247332 0.045083
v -0.088141 0.247332 0.045083
v -0.099435 0.225350 0.027647
v -0.026037 0.217521 0.019653
v -0.038688 0.245562 0.045102
v -0.026827 0.197127 -0.013824
v -0.062771 0.261124 0.055768
v -0.062771 0.261124 0.055768
v -0.038688 0.245562 0.045102
v -0.103548 0.065168 0.022624
v -0.069367 0.067699 0.040098
v -0.113403 0.074090 0.036512
v -0.069972 0.078630 0.052332
v -0.107648 0.074380 -0.078177
v -0.086568 0.182708 -0.041733
v -0.107648 0.074380 -0.078177
v -0.098094 0.065300 -0.064759
v -0.121930 0.054363 -0.024238
v -0.117790 0.045119 -0.025087
v -0.069206 0.070402 -0.087345
v -0.069810 0.081070 -0.098425
v -0.039968 0.060671 -0.067632
v -0.033167 0.071437 -0.078142
v -0.020022 0.050287 -0.024193
v -0.024583 0.043178 -0.024669
v -0.032971 0.059695 0.020557
v -0.026032 0.069386 0.031799
v -0.026032 0.069386 0.031799
v -0.041365 0.187226 0.042382
v -0.098094 0.065300 -0.064759
v -0.069056 0.101951 -0.012739
v -0.117790 0.045119 -0.025087
v -0.103548 0.065168 0.022624
v -0.069367 0.067699 0.040098
v -0.032971 0.059695 0.020557
v -0.024583 0.043178 -0.024669
v -0.039968 0.060671 -0.067632
v -0.069206 0.070402 -0.087345
v -0.069096 0.093574 -0.032548
v -0.041365 0.187226 0.042382
v -0.026037 0.217521 0.019653
v -0.121930 0.054363 -0.024238
v -0.014208 0.081886 -0.001844
v -0.013951 0.088761 -0.034096
v -0.026042 0.082411 -0.001850
v -0.025785 0.089286 -0.034102
v -0.015659 0.040608 -0.048207
v -0.027493 0.041133 -0.048214
v -0.014677 0.068122 -0.057278
v -0.026511 0.068647 -0.057284
v -0.015916 0.033733 -0.015955
v -0.015190 0.054372 0.007226
v -0.027750 0.034258 -0.015962
v -0.027024 0.054897 0.007220
v -0.026511 0.068647 -0.057284
v -0.027024 0.054897 0.007220
v -0.025785 0.089286 -0.034102
v -0.026042 0.082411 -0.001850
v -0.014677 0.068122 -0.057278
v -0.013951 0.088761 -0.034096
v -0.015190 0.054372 0.007226
v -0.014208 0.081886 -0.001844
v -0.015659 0.040608 -0.048207
v -0.027493 0.041133 -0.048214
v -0.027493 0.041133 -0.048214
v -0.027750 0.034258 -0.015962
v -0.015659 0.040608 -0.048207
v -0.015916 0.033733 -0.015955
v -0.113718 0.084562 -0.001890
v -0.113462 0.091436 -0.034137
v -0.125551 0.085087 -0.001896
v -0.125294 0.091961 -0.034144
v -0.115170 0.043290 -0.048247
v -0.127002 0.043814 -0.048253
v -0.114188 0.070800 -0.057316
v -0.126020 0.071325 -0.057323
v -0.115426 0.036415 -0.016000
v -0.114701 0.057051 0.007179
v -0.127258 0.036940 -0.016006
v -0.126533 0.057576 0.007173
v -0.126020 0.071325 -0.057323
v -0.126533 0.057576 0.007173
v -0.125294 0.091961 -0.034144
v -0.125551 0.085087 -0.001896
v -0.114188 0.070800 -0.057316
v -0.113462 0.091436 -0.034137
v -0.114701 0.057051 0.007179
v -0.113718 0.084562 -0.001890
v -0.115170 0.043290 -0.048247
v -0.127002 0.043814 -0.048253
v -0.127002 0.043814 -0.048253
v -0.127258 0.036940 -0.016006
v -0.115170 0.043290 -0.048247
v -0.115426 0.036415 -0.016000
vt 0.450962 0.940219
vt 0.490743 0.940540
vt 0.471094 0.904122
vt 0.429759 0.904122
vt 0.511346 0.904122
vt 0.450001 0.940047
vt 0.491524 0.940922
vt 0.582794 0.677293
vt 0.568077 0.677293
vt 0.582794 0.717669
vt 0.582794 0.717669
vt 0.568077 0.717669
vt 0.568077 0.717669
vt 0.597841 0.677293
vt 0.553457 0.677293
vt 0.597841 0.717669
vt 0.597841 0.717669
vt 0.553457 0.717669
vt 0.553457 0.717669
vt 0.538804 0.717669
vt 0.538804 0.717669
vt 0.538804 0.677293
vt 0.523998 0.677293
vt 0.523998 0.717669
vt 0.523998 0.717669
vt 0.512596 0.677293
vt 0.512596 0.717669
vt 0.512596 0.717669
vt 0.429238 0.904122
vt 0.450440 0.940176
vt 0.470572 0.904122
vt 0.449479 0.940003
vt 0.490221 0.940496
vt 0.491002 0.940878
vt 0.510825 0.904122
vt 0.485583 0.115220
vt 0.564404 0.115220
vt 0.563314 0.306248
vt 0.488557 0.272005
vt 0.501641 0.327445
vt 0.162367 0.860346
vt 0.140572 0.812586
vt 0.192157 0.852987
vt 0.129706 0.856117
vt 0.212702 0.823052
vt 0.094047 0.828998
vt 0.203605 0.788499
vt 0.088577 0.785701
vt 0.178115 0.756370
vt 0.102249 0.760172
vt 0.140329 0.744711
vt 0.525791 0.271163
vt 0.495432 0.115220
vt 0.570274 0.249479
vt 0.570274 0.115220
vt 0.525791 0.271163
vt 0.495432 0.115220
vt 0.497281 0.327445
vt 0.558954 0.306248
vt 0.484197 0.274277
vt 0.481223 0.115220
vt 0.560044 0.115220
vt 0.534084 0.230050
vt 0.527845 0.190098
vt 0.472791 0.234148
vt 0.570553 0.230369
vt 0.523339 0.262858
vt 0.570543 0.182279
vt 0.570448 0.277475
vt 0.526872 0.190087
vt 0.522275 0.262766
vt 0.533129 0.230012
vt 0.479448 0.240484
vt 0.501405 0.307632
vt 0.475278 0.115220
vt 0.550454 0.289533
vt 0.538389 0.115220
vt 0.534465 0.289770
vt 0.505381 0.115220
vt 0.569740 0.284765
vt 0.569740 0.115220
vt 0.505381 0.115220
vt 0.534465 0.289770
vt 0.501405 0.307632
vt 0.550454 0.289533
vt 0.475278 0.115220
vt 0.538389 0.115220
vt 0.377441 0.350185
vt 0.399815 0.343772
vt 0.366962 0.340087
vt 0.352941 0.373828
vt 0.400030 0.330149
vt 0.367751 0.374257
vt 0.433529 0.342795
vt 0.374864 0.393670
vt 0.423643 0.353938
vt 0.364740 0.401048
vt 0.441954 0.373828
vt 0.399939 0.404228
vt 0.429139 0.374078
vt 0.400428 0.417995
vt 0.425236 0.394970
vt 0.433253 0.401561
vt 0.374864 0.393670
vt 0.400813 0.366847
vt 0.367751 0.374257
vt 0.400581 0.376772
vt 0.377441 0.350185
vt 0.399939 0.404228
vt 0.399815 0.343772
vt 0.425236 0.394970
vt 0.423643 0.353938
vt 0.429139 0.374078
vt 0.841451 0.788160
vt 0.841450 0.776705
vt 0.847645 0.787917
vt 0.847639 0.798767
vt 0.847644 0.776793
vt 0.841450 0.799091
vt 0.847644 0.765824
vt 0.847644 0.809972
vt 0.841450 0.765502
vt 0.841450 0.810063
vt 0.847644 0.754894
vt 0.841449 0.754651
vt 0.841450 0.821184
vt 0.847645 0.821427
vt 0.800675 0.151665
vt 0.699550 0.151665
vt 0.773122 0.104117
vt 0.724151 0.104117
vt 0.723544 0.104117
vt 0.773729 0.104117
vt 0.800496 0.151665
vt 0.772943 0.104117
vt 0.699371 0.151665
vt 0.723971 0.104117
vt 0.723364 0.104117
vt 0.773550 0.104117
vt 0.841451 0.788160
vt 0.841450 0.776705
vt 0.847645 0.787917
vt 0.847639 0.798767
vt 0.847644 0.776793
vt 0.841450 0.799091
vt 0.847644 0.765824
vt 0.847644 0.809972
vt 0.841450 0.765502
vt 0.841450 0.810063
vt 0.847644 0.754894
vt 0.841449 0.754651
vt 0.841450 0.821184
vt 0.847645 0.821427
vt 0.800675 0.151665
vt 0.699550 0.151665
vt 0.773122 0.104117
vt 0.724151 0.104117
vt 0.723544 0.104117
vt 0.773729 0.104117
vt 0.800496 0.151665
vt 0.772943 0.104117
vt 0.699371 0.151665
vt 0.723971 0.104117
vt 0.723364 0.104117
vt 0.773550 0.104117
vn 0.9240 0.0300 0.3811
vn 0.9112 -0.3322 0.2437
vn 0.9992 -0.0387 -0.0039
vn 0.9369 0.3244 0.1303
vn 0.9080 -0.3957 -0.1378
vn 0.9322 0.2611 -0.2505
vn 0.9160 -0.1004 -0.3884
vn 0.0389 0.9361 0.3495
vn 0.0282 0.7672 -0.6408
vn -0.4242 0.8490 0.3150
vn 0.4936 0.8120 0.3113
vn -0.4319 0.6980 -0.5712
vn 0.4821 0.6612 -0.5748
vn 0.0291 0.6299 0.7761
vn -0.0106 -0.1667 -0.9859
vn 0.4311 0.5600 0.7074
vn -0.3789 0.5918 0.7114
vn -0.4621 -0.1292 -0.8773
vn 0.4433 -0.1655 -0.8809
vn -0.4936 -0.8120 -0.3113
vn 0.4242 -0.8490 -0.3150
vn -0.0389 -0.9361 -0.3495
vn -0.0282 -0.7672 0.6408
vn -0.4821 -0.6612 0.5747
vn 0.4319 -0.6980 0.5712
vn -0.0107 -0.3408 0.9401
vn -0.4125 -0.2962 0.8614
vn 0.3941 -0.3274 0.8588
vn -0.9160 0.1004 0.3884
vn -0.9080 0.3957 0.1378
vn -0.9992 0.0387 0.0039
vn -0.9322 -0.2611 0.2505
vn -0.9112 0.3322 -0.2437
vn -0.9369 -0.3244 -0.1303
vn -0.9240 -0.0300 -0.3811
vn 0.9897 0.0534 0.1322
vn 0.9948 0.0395 0.0933
vn 0.9760 -0.0587 0.2098
vn 0.9690 -0.0339 0.2446
vn 0.9255 -0.3327 0.1808
vn 0.0355 0.9833 -0.1784
vn 0.0342 0.8312 -0.5549
vn -0.1946 0.9575 -0.2128
vn 0.2635 0.9408 -0.2133
vn -0.4095 0.8429 -0.3490
vn 0.4772 0.8008 -0.3617
vn -0.3612 0.6581 -0.6606
vn 0.3371 0.6007 -0.7249
vn -0.1199 0.5308 -0.8389
vn 0.1274 0.5124 -0.8492
vn 0.0181 0.5074 -0.8615
vn -0.2718 0.0035 0.9623
vn -0.3313 0.0337 0.9429
vn -0.0146 0.0166 0.9997
vn 0.0308 0.0107 0.9995
vn 0.3121 0.0048 0.9500
vn 0.4185 -0.0270 0.9078
vn -0.9705 -0.1396 0.1963
vn -0.9769 0.0561 0.2061
vn -0.9701 0.0579 0.2355
vn -0.9824 0.1268 0.1368
vn -0.9883 0.1133 0.1019
vn 0.6550 -0.0699 0.7523
vn 0.5938 -0.1911 0.7815
vn 0.8619 -0.0631 0.5031
vn -0.0016 -0.0621 0.9980
vn 0.6235 0.0307 0.7812
vn -0.0098 -0.2763 0.9610
vn 0.0067 0.1198 0.9928
vn -0.5657 -0.1481 0.8112
vn -0.6023 0.0895 0.7932
vn -0.6475 -0.0068 0.7620
vn -0.8472 0.0186 0.5310
vn 0.8019 0.0790 -0.5922
vn 0.9542 0.1539 -0.2564
vn 0.8511 0.0989 -0.5156
vn 0.9708 0.1687 -0.1704
vn 0.2030 0.3293 -0.9221
vn 0.4846 0.3782 -0.7887
vn 0.0139 0.3661 -0.9304
vn 0.0228 0.4646 -0.8852
vn -0.4483 0.4135 -0.7925
vn -0.1782 0.3447 -0.9216
vn -0.7963 0.1392 -0.5886
vn -0.8437 0.1627 -0.5115
vn -0.9416 0.2253 -0.2501
vn -0.9565 0.2412 -0.1638
vn -0.2892 -0.8737 0.3910
vn 0.0023 -0.7691 0.6391
vn -0.2221 -0.8655 0.4489
vn -0.8604 -0.5074 -0.0470
vn -0.0160 -0.7460 0.6658
vn -0.9110 -0.3981 -0.1074
vn 0.2723 -0.7973 0.5387
vn -0.2776 -0.8571 -0.4339
vn 0.4212 -0.7929 0.4402
vn -0.2305 -0.8531 -0.4680
vn 0.8154 -0.5769 -0.0482
vn -0.0110 -0.7465 -0.6652
vn 0.8408 -0.5333 -0.0921
vn -0.0328 -0.7208 -0.6923
vn 0.4194 -0.7465 -0.5165
vn 0.2998 -0.7505 -0.5889
vn 0.5906 -0.7770 0.2178
vn -0.0299 -0.9983 -0.0508
vn 0.7534 -0.6559 0.0456
vn -0.0406 -0.9202 0.3892
vn 0.5880 -0.7748 -0.2324
vn -0.0701 -0.9187 0.3886
vn -0.0676 -0.8370 -0.5430
vn -0.6471 -0.7333 0.2085
vn -0.6641 -0.7215 -0.1960
vn -0.7908 -0.6096 0.0551
vn 0.0326 0.7423 0.6693
vn 0.0429 0.9656 -0.2565
vn 0.0327 0.7448 0.6665
vn -0.0118 -0.2563 0.9665
vn 0.0430 0.9659 -0.2553
vn -0.0121 -0.2620 0.9650
vn 0.0121 0.2620 -0.9650
vn -0.0429 -0.9656 0.2565
vn 0.0118 0.2563 -0.9665
vn -0.0430 -0.9659 0.2553
vn -0.0134 -0.3126 -0.9498
vn -0.0432 -0.9770 -0.2086
vn -0.9994 0.0356 -0.0004
vn -0.9994 0.0355 -0.0004
vn 0.9994 -0.0356 0.0004
vn 0.9994 -0.0355 0.0004
usemtl Material.001
s 1
f 1/1/1 2/2/2 3/3/3
f 18/4/4 1/1/1 3/3/3
f 2/2/2 10/5/5 3/3/3
f 17/6/6 18/4/4 3/3/3
f 10/5/5 19/7/7 3/3/3
f 19/7/7 17/6/6 3/3/3
f 4/8/8 5/9/9 6/10/10
f 22/11/11 5/9/9 4/8/8
f 6/10/10 5/9/9 7/12/12
f 21/13/13 5/9/9 22/11/11
f 24/14/14 22/11/11 4/8/8
f 4/8/8 6/10/10 24/14/14
f 5/9/9 8/15/15 7/12/12
f 21/13/13 8/15/15 5/9/9
f 23/16/16 22/11/11 24/14/14
f 24/14/14 6/10/10 32/17/17
f 7/12/12 8/15/15 9/18/18
f 20/19/19 8/15/15 21/13/13
f 8/15/15 35/20/20 9/18/18
f 20/19/19 28/21/21 8/15/15
f 29/22/22 35/20/20 8/15/15
f 8/15/15 28/21/21 29/22/22
f 29/22/22 27/23/23 35/20/20
f 28/21/21 27/23/23 29/22/22
f 35/20/20 27/23/23 33/24/24
f 26/25/25 27/23/23 28/21/21
f 27/23/23 31/26/26 33/24/24
f 26/25/25 31/26/26 27/23/23
f 33/24/24 31/26/26 34/27/27
f 30/28/28 31/26/26 26/25/25
f 11/29/29 12/30/30 13/31/31
f 16/32/32 11/29/29 13/31/31
f 12/30/30 14/33/33 13/31/31
f 25/34/34 16/32/32 13/31/31
f 14/33/33 15/35/35 13/31/31
f 15/35/35 25/34/34 13/31/31
f 36/36/36 37/37/37 38/38/38
f 36/36/36 38/38/38 111/39/39
f 111/39/39 38/38/38 112/40/40
f 39/41/41 40/42/42 41/43/43
f 39/41/41 50/44/44 40/42/42
f 41/43/43 40/42/42 77/45/45
f 50/44/44 51/46/46 40/42/42
f 77/45/45 40/42/42 75/47/47
f 40/42/42 51/46/46 71/48/48
f 75/47/47 40/42/42 76/49/49
f 40/42/42 71/48/48 72/50/50
f 40/42/42 79/51/51 76/49/49
f 72/50/50 79/51/51 40/42/42
f 42/52/52 43/53/53 44/54/54
f 44/54/54 43/53/53 45/55/55
f 45/55/55 100/56/56 44/54/54
f 99/57/57 100/56/56 45/55/55
f 46/58/58 47/59/59 48/60/60
f 48/60/60 47/59/59 49/61/61
f 49/61/61 47/59/59 113/62/62
f 52/63/63 53/64/64 54/65/65
f 52/63/63 55/66/66 53/64/64
f 54/65/65 80/67/67 52/63/63
f 52/63/63 80/67/67 55/66/66
f 53/64/64 55/66/66 56/68/68
f 55/66/66 80/67/67 78/69/69
f 55/66/66 70/70/70 56/68/68
f 73/71/71 55/66/66 78/69/69
f 69/72/72 70/70/70 55/66/66
f 69/72/72 55/66/66 73/71/71
f 69/72/72 74/73/73 70/70/70
f 69/72/72 73/71/71 74/73/73
f 57/74/74 58/75/75 59/76/76
f 59/76/76 58/75/75 60/77/77
f 61/78/78 62/79/79 63/80/80
f 63/80/80 62/79/79 64/81/81
f 64/81/81 85/82/82 63/80/80
f 63/80/80 85/82/82 86/83/83
f 65/84/84 66/85/85 67/86/86
f 67/86/86 66/85/85 68/87/87
f 81/88/88 82/89/89 83/90/90
f 89/91/91 81/88/88 83/90/90
f 83/90/90 82/89/89 84/92/92
f 90/93/93 81/88/88 89/91/91
f 84/92/92 82/89/89 98/94/94
f 89/91/91 88/95/95 90/93/93
f 98/94/94 82/89/89 97/96/96
f 87/97/97 88/95/95 89/91/91
f 97/96/96 95/98/98 98/94/94
f 88/95/95 87/97/97 91/99/99
f 96/100/100 95/98/98 97/96/96
f 91/99/99 87/97/97 92/101/101
f 93/102/102 95/98/98 96/100/100
f 93/102/102 91/99/99 94/103/103
f 94/103/103 91/99/99 92/101/101
f 94/103/103 95/98/98 93/102/102
f 101/104/104 102/105/105 103/106/106
f 102/105/105 101/104/104 110/107/107
f 104/108/108 103/106/106 102/105/105
f 110/107/107 101/104/104 109/109/109
f 105/110/110 104/108/108 102/105/105
f 109/109/109 108/111/111 110/107/107
f 110/107/107 108/111/111 102/105/105
f 106/112/112 105/110/110 102/105/105
f 102/105/105 108/111/111 107/113/113
f 102/105/105 107/113/113 106/112/112
f 114/114/114 115/115/115 116/116/116
f 125/117/117 114/114/114 116/116/116
f 116/116/116 115/115/115 117/118/118
f 123/119/119 114/114/114 125/117/117
f 115/115/115 121/120/120 117/118/118
f 124/121/121 123/119/119 125/117/117
f 120/122/122 121/120/120 115/115/115
f 122/123/123 123/119/119 124/121/121
f 120/122/122 119/124/124 121/120/120
f 118/125/124 119/124/124 120/122/122
f 122/123/123 124/121/121 134/126/125
f 134/126/125 124/121/121 135/127/125
f 126/128/126 127/129/126 128/130/126
f 126/128/126 137/131/126 127/129/126
f 128/130/126 127/129/126 129/132/126
f 136/133/127 137/131/126 126/128/126
f 130/134/128 131/135/128 132/136/128
f 139/137/128 130/134/128 132/136/128
f 132/136/128 131/135/128 133/138/128
f 138/139/128 130/134/128 139/137/128
f 140/140/114 141/141/115 142/142/116
f 151/143/117 140/140/114 142/142/116
f 142/142/116 141/141/115 143/144/118
f 149/145/119 140/140/114 151/143/117
f 141/141/115 147/146/120 143/144/118
f 150/147/121 149/145/119 151/143/117
f 146/148/122 147/146/120 141/141/115
f 148/149/123 149/145/119 150/147/121
f 146/148/122 145/150/124 147/146/120
f 144/151/124 145/150/124 146/148/122
f 148/149/123 150/147/121 160/152/125
f 160/152/125 150/147/121 161/153/125
f 152/154/126 153/155/126 154/156/126
f 152/154/126 163/157/127 153/155/126
f 154/156/126 153/155/126 155/158/127
f 162/159/127 163/157/127 152/154/126
f 156/160/128 157/161/128 158/162/128
f 165/163/128 156/160/128 158/162/128
f 158/162/128 157/161/128 159/164/129
f 164/165/128 156/160/128 165/163/128
