# Blender v2.79 (sub 0) OBJ File: 'buzz.blend'
# www.blender.org
mtllib buzzlightyRightThigh.mtl
o buzzlightyRightThigh_buzzlighty.024
v -0.092221 0.382203 0.017759
v -0.059360 0.380498 0.043737
v -0.058805 0.397438 0.007182
v -0.060668 0.356353 0.058552
v -0.075344 0.246767 0.045504
v -0.052691 0.246371 0.045447
v -0.106159 0.358713 0.022588
v -0.093541 0.230421 0.029079
v -0.106159 0.358713 0.022588
v -0.092221 0.382203 0.017759
v -0.088766 0.359075 -0.035641
v -0.079657 0.382465 -0.024302
v -0.026488 0.379706 0.017731
v -0.039031 0.380921 -0.024320
v -0.058805 0.397438 0.007182
v -0.039031 0.380921 -0.024320
v -0.079657 0.382465 -0.024302
v -0.058805 0.397438 0.007182
v -0.088766 0.359075 -0.035641
v -0.032525 0.356939 -0.035665
v -0.015159 0.355256 0.022549
v -0.032525 0.356939 -0.035665
v -0.100147 0.220626 0.004605
v -0.015159 0.355256 0.022549
v -0.026488 0.379706 0.017731
v -0.051977 0.264543 -0.025730
v -0.075185 0.264734 -0.026015
v -0.028935 0.223453 0.005026
v -0.051977 0.264543 -0.025730
v -0.015159 0.355256 0.022549
v -0.034888 0.231571 0.028545
v -0.028935 0.223453 0.005026
v -0.093541 0.230421 0.029079
v -0.052691 0.246371 0.045447
v -0.015159 0.355256 0.022549
v -0.034888 0.231571 0.028545
v -0.058805 0.397438 0.007182
v -0.075185 0.264734 -0.026015
v -0.060668 0.356353 0.058552
v -0.100147 0.220626 0.004605
v -0.075185 0.264734 -0.026015
v -0.028935 0.223453 0.005026
v -0.051977 0.264543 -0.025730
v -0.093541 0.230421 0.029079
v -0.034888 0.231571 0.028545
v -0.075344 0.246767 0.045504
v -0.052691 0.246371 0.045447
v -0.034888 0.231571 0.028545
v -0.093541 0.230421 0.029079
v -0.028935 0.223453 0.005026
v -0.100147 0.220626 0.004605
vt 0.522424 0.264124
vt 0.505609 0.218908
vt 0.515184 0.210609
vt 0.471109 0.268185
vt 0.571904 0.260726
vt 0.571904 0.283631
vt 0.464112 0.250389
vt 0.471519 0.268059
vt 0.571904 0.247995
vt 0.464033 0.248956
vt 0.548346 0.189106
vt 0.589735 0.189459
vt 0.509698 0.182921
vt 0.571904 0.247995
vt 0.548346 0.189106
vt 0.464112 0.250389
vt 0.509698 0.182921
vt 0.531340 0.251735
vt 0.530715 0.265371
vt 0.509064 0.254252
vt 0.520935 0.194997
vt 0.507923 0.267174
vt 0.518755 0.278157
vt 0.533317 0.200117
vt 0.505755 0.213571
vt 0.509468 0.266142
vt 0.525069 0.268533
vt 0.513921 0.277605
vt 0.526826 0.255731
vt 0.507750 0.250863
vt 0.517911 0.198055
vt 0.531978 0.216021
vt 0.519912 0.264619
vt 0.619023 0.266898
vt 0.570818 0.289047
vt 0.526218 0.241681
vt 0.622004 0.243745
vt 0.544492 0.170531
vt 0.594650 0.170858
vt 0.093049 0.795169
vt 0.123366 0.745395
vt 0.206917 0.795731
vt 0.179631 0.745842
vt 0.103620 0.833688
vt 0.197406 0.832788
vt 0.132719 0.859263
vt 0.168942 0.859175
vt 0.197406 0.832788
vt 0.103620 0.833688
vt 0.206917 0.795731
vt 0.093049 0.795169
vn 0.9479 -0.1373 0.2873
vn -0.4567 0.6383 0.6196
vn 0.0311 0.6904 0.7228
vn 0.0340 0.9066 0.4206
vn -0.6005 0.2225 0.7680
vn 0.5076 0.5947 0.6234
vn -0.2552 0.3074 0.9167
vn 0.5730 0.4058 0.7120
vn -0.4247 -0.0633 0.9031
vn 0.0004 -0.1183 0.9930
vn -0.6566 -0.0264 0.7537
vn 0.6190 -0.0485 0.7839
vn 0.6481 -0.0638 0.7588
vn 0.6250 -0.0516 0.7789
vn 0.6565 -0.0683 0.7512
vn -0.9495 0.1978 -0.2434
vn -0.7420 0.6341 -0.2177
vn -0.9221 0.1948 -0.3343
vn -0.9910 -0.0950 -0.0940
vn -0.7489 0.6251 -0.2198
vn -0.4445 0.8867 -0.1273
vn -0.9540 -0.0792 0.2892
vn -0.6314 -0.1681 -0.7570
vn 0.7966 0.5625 -0.2214
vn 0.8035 0.5517 -0.2237
vn 0.5087 0.8515 -0.1271
vn 0.9339 0.1184 -0.3372
vn 0.9500 0.1396 -0.2793
vn 0.8138 -0.1493 -0.5616
vn 0.6246 -0.2123 -0.7515
vn 0.0236 0.6298 -0.7764
vn 0.0235 0.6283 -0.7776
vn 0.0338 0.8937 -0.4474
vn 0.0056 0.1579 -0.9874
vn 0.0069 0.1566 -0.9876
vn 0.0062 -0.1018 -0.9948
vn 0.0114 -0.0999 -0.9949
vn 0.0278 -0.5806 -0.8137
vn 0.0183 -0.5877 -0.8089
vn 0.0219 -0.5851 -0.8107
vn 0.0049 -0.5974 -0.8019
vn 0.0204 -0.7199 0.6938
vn 0.0067 -0.7367 0.6762
vn 0.0132 -0.7288 0.6846
vn -0.0116 -0.7583 0.6518
vn 0.0215 -0.9434 0.3310
vn 0.0321 -0.9336 0.3568
vn 0.0253 -0.9399 0.3403
vn 0.0348 -0.9310 0.3632
usemtl Material.001
s 1
f 30/1/1 31/2/1 32/3/1
f 1/4/2 2/5/3 3/6/4
f 7/7/5 2/5/3 1/4/2
f 2/5/3 25/8/6 3/6/4
f 4/9/7 2/5/3 7/7/5
f 2/5/3 24/10/8 25/8/6
f 4/9/7 24/10/8 2/5/3
f 4/9/7 7/7/5 5/11/9
f 4/9/7 5/11/9 6/12/10
f 5/11/9 7/7/5 8/13/11
f 39/14/12 34/15/13 35/16/14
f 35/16/14 34/15/13 36/17/15
f 9/18/16 10/19/17 11/20/18
f 11/20/18 23/21/19 9/18/16
f 11/20/18 10/19/17 12/22/20
f 12/22/20 10/19/17 37/23/21
f 9/18/16 23/21/19 33/24/22
f 11/20/18 38/25/23 23/21/19
f 13/26/24 14/27/25 15/28/26
f 13/26/24 22/29/27 14/27/25
f 21/30/28 22/29/27 13/26/24
f 28/31/29 22/29/27 21/30/28
f 28/31/29 29/32/30 22/29/27
f 16/33/31 17/34/32 18/35/33
f 20/36/34 17/34/32 16/33/31
f 19/37/35 17/34/32 20/36/34
f 20/36/34 26/38/36 19/37/35
f 19/37/35 26/38/36 27/39/37
f 40/40/38 41/41/39 42/42/40
f 42/42/40 41/41/39 43/43/41
f 44/44/42 45/45/43 46/46/44
f 46/46/44 45/45/43 47/47/45
f 48/48/46 49/49/47 50/50/48
f 50/50/48 49/49/47 51/51/49
