# Blender v2.79 (sub 0) OBJ File: 'buzz.blend'
# www.blender.org
mtllib buzzlightyLeftWing2.mtl
o buzzlightyLeftWing2_buzzlighty.014
v 0.564341 0.474865 -0.130966
v 0.572968 0.558170 -0.131071
v 0.549435 0.475118 -0.121146
v 0.555658 0.562290 -0.114152
v 0.535713 0.604627 -0.124651
v 0.535759 0.604682 -0.137308
v 0.323015 0.622743 -0.124276
v 0.322992 0.622743 -0.137029
v 0.555589 0.562317 -0.147973
v 0.549400 0.475169 -0.140830
v 0.535537 0.571421 -0.143352
v 0.534670 0.474100 -0.135807
v 0.572968 0.558170 -0.131071
v 0.555589 0.562317 -0.147973
v 0.555658 0.562290 -0.114152
v 0.535537 0.571421 -0.143352
v 0.535580 0.571421 -0.118702
v 0.555589 0.562317 -0.147973
v 0.555658 0.562290 -0.114152
v 0.535537 0.571421 -0.143352
v 0.534670 0.474100 -0.135807
v 0.322994 0.477316 -0.136241
v 0.548755 0.455063 -0.130638
v 0.534885 0.474155 -0.126005
v 0.322994 0.477316 -0.136241
v 0.534670 0.474100 -0.135807
v 0.323013 0.477316 -0.125060
v 0.534885 0.474155 -0.126005
v 0.535713 0.604627 -0.124651
v 0.323015 0.622743 -0.124276
v 0.535580 0.571421 -0.118702
v 0.323013 0.477316 -0.125060
v 0.535537 0.571421 -0.143352
v 0.535759 0.604682 -0.137308
v 0.535580 0.571421 -0.118702
v 0.535713 0.604627 -0.124651
v 0.535580 0.571421 -0.118702
v 0.534885 0.474155 -0.126005
v 0.322992 0.622743 -0.137029
v 0.535759 0.604682 -0.137308
v 0.537597 0.611412 -0.126737
v 0.554459 0.611412 -0.121168
v 0.549818 0.618590 -0.131010
v 0.544694 0.611408 -0.140965
v 0.560928 0.611416 -0.135159
v 0.560928 0.611416 -0.135159
v 0.556844 0.559571 -0.119203
v 0.565017 0.559653 -0.136364
v 0.536311 0.563141 -0.125920
v 0.544795 0.561040 -0.143067
v 0.565017 0.559653 -0.136364
v 0.556205 0.561108 -0.125114
v 0.555812 0.582381 -0.125427
v 0.546958 0.565241 -0.122681
v 0.547062 0.582296 -0.123126
v 0.555792 0.582380 -0.136467
v 0.547034 0.582296 -0.138738
v 0.542477 0.582249 -0.130923
v 0.556184 0.561108 -0.136781
v 0.555792 0.582380 -0.136467
v 0.555812 0.582381 -0.125427
v 0.547062 0.582296 -0.123126
v 0.542477 0.582249 -0.130923
v 0.542114 0.567663 -0.130922
v 0.546929 0.565241 -0.139181
v 0.547034 0.582296 -0.138738
vt 0.832885 0.766316
vt 0.840053 0.766880
vt 0.840049 0.766876
vt 0.833647 0.754990
vt 0.832885 0.766316
vt 0.839813 0.755025
vt 0.839813 0.755032
vt 0.840049 0.766876
vt 0.840053 0.766880
vt 0.840087 0.752298
vt 0.845820 0.754894
vt 0.845902 0.754886
vt 0.848341 0.768118
vt 0.848341 0.768118
vt 0.782897 0.995263
vt 0.794450 0.996825
vt 0.748200 0.623428
vt 0.759175 0.627488
vt 0.848341 0.768118
vt 0.848341 0.768118
vt 0.840053 0.766880
vt 0.840049 0.766876
vt 0.829997 0.995263
vt 0.997694 0.995263
vt 0.997694 0.623428
vt 0.748489 0.623428
vt 0.782503 0.995263
vt 0.917392 0.768105
vt 0.917392 0.807223
vt 0.878274 0.768105
vt 0.878274 0.807223
vt 0.782897 0.995263
vt 0.748200 0.623428
vt 0.829997 0.995263
vt 0.997694 0.623428
vt 0.997694 0.995263
vt 0.834811 0.730326
vt 0.852131 0.730326
vt 0.834811 0.747647
vt 0.852131 0.747647
vt 0.507286 0.381095
vt 0.504458 0.377200
vt 0.496589 0.382962
vt 0.507397 0.364946
vt 0.498425 0.378215
vt 0.504413 0.368973
vt 0.490942 0.372887
vt 0.496959 0.362704
vt 0.495039 0.372819
vt 0.498575 0.367247
vt 0.504413 0.368973
vt 0.498575 0.367247
vt 0.495039 0.372819
vt 0.504458 0.377200
vt 0.498425 0.378215
vt 1.142278 0.562993
vt 1.145783 0.601909
vt 1.267780 0.558962
vt 1.143899 0.523836
vt 1.150099 0.631531
vt 1.149794 0.484038
vt 1.019223 0.564124
vt 1.019937 0.608458
vt 1.018534 0.642882
vt 1.019893 0.519116
vt 1.020715 0.473635
vn 0.2318 0.9727 0.0003
vn 0.9425 -0.3340 -0.0010
vn 0.9886 -0.1502 -0.0019
vn 0.1276 -0.2356 0.9634
vn 0.1246 -0.2473 -0.9609
vn 0.1609 -0.0970 0.9822
vn 0.1569 -0.0986 -0.9827
vn 0.0543 -0.9984 0.0142
vn -0.5581 -0.4062 0.7235
vn -0.5610 -0.4170 -0.7150
vn -0.2510 -0.0707 0.9654
vn -0.2551 -0.0725 -0.9642
vn 0.0849 0.9964 0.0046
vn 0.0848 0.9964 0.0045
vn 0.0846 0.9964 0.0000
vn 0.0846 0.9964 -0.0002
vn 0.4133 0.9106 -0.0007
vn 0.4137 0.9104 -0.0003
vn 0.4136 0.9104 -0.0004
vn 0.4140 0.9102 -0.0001
vn -0.0002 0.0473 -0.9989
vn 0.0009 -0.0773 -0.9970
vn -0.0223 -0.0250 -0.9994
vn -0.0264 0.0137 -0.9995
vn 0.0139 0.1786 -0.9838
vn -0.0152 -0.9999 0.0000
vn -0.0149 -0.9998 0.0058
vn -0.0152 -0.9999 0.0002
vn -0.0149 -0.9998 0.0060
vn 0.0167 0.1762 0.9842
vn -0.0229 0.0135 0.9996
vn 0.0026 0.0469 0.9989
vn -0.0191 -0.0244 0.9995
vn 0.0033 -0.0749 0.9972
vn 1.0000 -0.0063 -0.0017
vn 1.0000 -0.0045 0.0015
vn 1.0000 -0.0056 -0.0005
vn 1.0000 -0.0033 0.0037
vn 0.8590 0.0234 0.5114
vn 0.7945 0.0256 0.6068
vn -0.2309 0.0242 0.9727
vn 0.8572 0.0234 -0.5144
vn -0.3787 0.0276 0.9251
vn 0.7923 0.0256 -0.6095
vn -0.9997 0.0226 0.0018
vn -0.2343 0.0242 -0.9718
vn -0.9997 0.0249 0.0018
vn -0.3819 0.0276 -0.9238
vn -0.0098 0.9999 0.0002
vn -0.0097 0.9999 0.0004
vn -0.0098 0.9999 0.0000
vn -0.0098 0.9999 -0.0001
vn -0.0097 0.9999 -0.0004
vn -0.8328 0.4361 0.3410
vn 0.3547 0.4293 0.8306
vn 0.0205 0.9998 -0.0011
vn -0.3474 0.4261 -0.8353
vn 0.8543 0.3353 0.3971
vn 0.3179 0.2981 -0.9000
vn -0.9132 0.0300 0.4064
vn 0.4501 0.0565 0.8912
vn 0.9010 0.0612 0.4294
vn -0.3273 0.0426 -0.9439
vn 0.3171 0.0471 -0.9472
usemtl Material.001
s 1
f 13/1/1 14/2/1 15/3/1
f 1/4/2 2/5/3 3/6/4
f 10/7/5 2/5/3 1/4/2
f 3/6/4 2/5/3 4/8/6
f 9/9/7 2/5/3 10/7/5
f 23/10/8 10/7/5 1/4/2
f 23/10/8 1/4/2 3/6/4
f 3/6/4 4/8/6 24/11/9
f 23/10/8 3/6/4 24/11/9
f 12/12/10 9/9/7 10/7/5
f 23/10/8 24/11/9 12/12/10
f 10/7/5 23/10/8 12/12/10
f 24/11/9 4/8/6 37/13/11
f 11/14/12 9/9/7 12/12/10
f 5/15/13 6/16/14 7/17/15
f 7/17/15 6/16/14 8/18/16
f 16/19/17 17/20/18 18/21/19
f 18/21/19 17/20/18 19/22/20
f 20/23/21 21/24/22 22/25/23
f 22/25/23 39/26/24 20/23/21
f 20/23/21 39/26/24 40/27/25
f 25/28/26 26/29/27 27/30/28
f 27/30/28 26/29/27 28/31/29
f 29/32/30 30/33/31 31/34/32
f 31/34/32 30/33/31 32/35/33
f 31/34/32 32/35/33 38/36/34
f 33/37/35 34/38/36 35/39/37
f 35/39/37 34/38/36 36/40/38
f 52/41/39 53/42/40 54/43/41
f 52/41/39 59/44/42 53/42/40
f 54/43/41 53/42/40 55/45/43
f 53/42/40 59/44/42 60/46/44
f 55/45/43 64/47/45 54/43/41
f 59/44/42 65/48/46 60/46/44
f 63/49/47 64/47/45 55/45/43
f 60/46/44 65/48/46 66/50/48
f 66/50/48 64/47/45 63/49/47
f 65/48/46 64/47/45 66/50/48
f 56/51/49 57/52/50 58/53/51
f 61/54/52 56/51/49 58/53/51
f 61/54/52 58/53/51 62/55/53
f 41/56/54 42/57/55 43/58/56
f 44/59/57 41/56/54 43/58/56
f 42/57/55 45/60/58 43/58/56
f 46/61/59 44/59/57 43/58/56
f 41/56/54 49/62/60 42/57/55
f 41/56/54 44/59/57 49/62/60
f 42/57/55 47/63/61 45/60/58
f 42/57/55 49/62/60 47/63/61
f 45/60/58 47/63/61 48/64/62
f 44/59/57 46/61/59 50/65/63
f 49/62/60 44/59/57 50/65/63
f 50/65/63 46/61/59 51/66/64
