# Blender v2.79 (sub 0) OBJ File: 'buzz.blend'
# www.blender.org
mtllib buzzlightyRightArm.mtl
o buzzlightyRightArm_buzzlighty.013
v -0.301708 0.614450 -0.005399
v -0.299128 0.622189 -0.006789
v -0.302680 0.599947 -0.025474
v -0.298836 0.606116 -0.036370
v -0.146117 0.539932 0.000486
v -0.146004 0.539829 -0.040397
v -0.131002 0.578410 0.008898
v -0.130842 0.578266 -0.048919
v -0.181660 0.524313 -0.020015
v -0.202637 0.540309 -0.051283
v -0.181350 0.540212 -0.060938
v -0.260788 0.581446 -0.005944
v -0.260849 0.597196 0.029256
v -0.287777 0.614903 0.016056
v -0.213263 0.623539 -0.042383
v -0.204778 0.628082 0.008617
v -0.205107 0.616470 0.004577
v -0.145169 0.617201 0.000295
v -0.176353 0.578908 0.032468
v -0.175833 0.617497 0.015439
v -0.146004 0.539829 -0.040397
v -0.146117 0.539932 0.000486
v -0.300547 0.582527 -0.031766
v -0.302680 0.599947 -0.025474
v -0.301389 0.549790 -0.007430
v -0.202173 0.609779 0.014825
v -0.205107 0.616470 0.004577
v -0.257690 0.578711 0.034805
v -0.268994 0.558019 0.025298
v -0.176780 0.540228 0.015630
v -0.206772 0.540472 0.004250
v -0.261375 0.551420 0.023917
v -0.268994 0.558019 0.025298
v -0.283770 0.542175 0.013684
v -0.288732 0.548999 0.012601
v -0.239133 0.577924 0.032153
v -0.253361 0.603747 0.026524
v -0.257690 0.578711 0.034805
v -0.260849 0.597196 0.029256
v -0.180319 0.633590 -0.020285
v -0.145056 0.617099 -0.040588
v -0.180402 0.617481 -0.061129
v -0.200052 0.576033 0.022568
v -0.202173 0.609779 0.014825
v -0.239133 0.577924 0.032153
v -0.253361 0.603747 0.026524
v -0.299128 0.622189 -0.006789
v -0.204778 0.628082 0.008617
v -0.213263 0.623539 -0.042383
v -0.261375 0.551420 0.023917
v -0.206772 0.540472 0.004250
v -0.301654 0.563996 -0.027559
v -0.301654 0.563996 -0.027559
v -0.300547 0.582527 -0.031766
v -0.297414 0.560125 -0.041183
v -0.296206 0.584438 -0.047571
v -0.180830 0.578807 -0.077967
v -0.145056 0.617099 -0.040588
v -0.180402 0.617481 -0.061129
v -0.205107 0.616470 0.004577
v -0.175833 0.617497 0.015439
v -0.145169 0.617201 0.000295
v -0.181350 0.540212 -0.060938
v -0.215323 0.579081 -0.062241
v -0.215985 0.558196 -0.052927
v -0.296206 0.584438 -0.047571
v -0.297414 0.560125 -0.041183
v -0.213263 0.623539 -0.042383
v -0.298836 0.606116 -0.036370
v -0.213263 0.623539 -0.042383
v -0.287777 0.614903 0.016056
v -0.285652 0.621136 0.014081
v -0.215323 0.579081 -0.062241
v -0.202637 0.540309 -0.051283
v -0.212653 0.540355 -0.021805
v -0.299872 0.541509 -0.013628
v -0.301389 0.549790 -0.007430
v -0.213263 0.623539 -0.042383
v -0.212653 0.540355 -0.021805
v -0.299872 0.541509 -0.013628
v -0.206772 0.540472 0.004250
v -0.176780 0.540228 0.015630
v -0.200052 0.576033 0.022568
v -0.215985 0.558196 -0.052927
v -0.212653 0.540355 -0.021805
v -0.202173 0.609779 0.014825
v -0.283770 0.542175 0.013684
v -0.215985 0.558196 -0.052927
v -0.285652 0.621136 0.014081
v -0.285652 0.621136 0.014081
v -0.204778 0.628082 0.008617
v -0.298836 0.606116 -0.036370
v -0.202637 0.540309 -0.051283
v -0.260788 0.581446 -0.005944
v -0.287777 0.614903 0.016056
v -0.302680 0.599947 -0.025474
v -0.301389 0.549790 -0.007430
v -0.288732 0.548998 0.012601
v -0.268994 0.558019 0.025298
v -0.301708 0.614450 -0.005399
vt 0.258851 0.754754
vt 0.258934 0.763480
vt 0.270599 0.746363
vt 0.241810 0.762930
vt 0.278033 0.751252
vt 0.241983 0.754999
vt 0.274858 0.733048
vt 0.224286 0.750339
vt 0.285198 0.734696
vt 0.229118 0.743432
vt 0.281373 0.715942
vt 0.225892 0.729979
vt 0.272423 0.718752
vt 0.215809 0.730825
vt 0.264622 0.701448
vt 0.228190 0.709905
vt 0.261270 0.707750
vt 0.233232 0.714777
vt 0.242018 0.703119
vt 0.244401 0.708242
vt 0.539629 0.725068
vt 0.555842 0.725068
vt 0.539954 0.676280
vt 0.525639 0.676280
vt 0.555635 0.676280
vt 0.539188 0.725119
vt 0.525248 0.725068
vt 0.570868 0.725068
vt 0.556127 0.725119
vt 0.518566 0.676280
vt 0.570445 0.676280
vt 0.524756 0.725119
vt 0.514179 0.725068
vt 0.516776 0.715101
vt 0.571410 0.725119
vt 0.580712 0.676280
vt 0.514216 0.725119
vt 0.580626 0.725068
vt 0.584572 0.725119
vt 0.584046 0.705018
vt 0.584046 0.705018
vt 0.580626 0.725068
vt 0.599047 0.725068
vt 0.471083 0.904336
vt 0.498927 0.935687
vt 0.510436 0.904336
vt 0.487163 0.939137
vt 0.470170 0.945017
vt 0.447751 0.938310
vt 0.445257 0.938542
vt 0.431614 0.904336
vt 0.143051 0.804378
vt 0.099544 0.827691
vt 0.130659 0.855770
vt 0.091742 0.797235
vt 0.109493 0.762818
vt 0.210171 0.804183
vt 0.199870 0.834325
vt 0.204280 0.771818
vt 0.177306 0.746911
vt 0.478853 0.690273
vt 0.431242 0.699539
vt 0.433829 0.693904
vt 0.423039 0.689836
vt 0.470038 0.904027
vt 0.494154 0.938103
vt 0.509496 0.902991
vt 0.446823 0.938071
vt 0.494154 0.938104
vt 0.430668 0.904379
vt 0.446823 0.938070
vt 0.424294 0.697576
vt 0.419291 0.699314
vt 0.422755 0.692152
vt 0.425995 0.692228
vt 0.417733 0.692324
vt 0.427223 0.697365
vt 0.413868 0.701293
vt 0.408134 0.692988
vt 0.427480 0.690507
vt 0.429573 0.697301
vt 0.430158 0.689587
vt 0.433113 0.690264
vt 0.432848 0.697539
vt 0.435813 0.688895
vt 0.435625 0.698176
vt 0.444309 0.685215
vt 0.445965 0.701380
vt 0.691377 0.220719
vt 0.750506 0.376216
vt 0.635563 0.374237
vt 0.741501 0.234638
vt 0.626297 0.225173
vt 0.143051 0.804378
vt 0.130659 0.855770
vt 0.171456 0.855217
vt 0.199870 0.834325
vt 0.109493 0.762818
vt 0.136506 0.748025
vt 0.177306 0.746911
vn -0.9297 0.3408 0.1395
vn -0.9103 0.3455 0.2279
vn -0.9560 0.1599 -0.2459
vn -0.5416 0.4086 0.7346
vn -0.9601 0.1237 -0.2506
vn -0.4602 0.4198 0.7823
vn -0.9599 -0.0024 -0.2803
vn -0.0002 0.3853 0.9228
vn -0.9642 -0.0018 -0.2651
vn 0.0000 0.3850 0.9229
vn -0.9598 -0.0891 -0.2661
vn 0.1079 -0.0663 0.9919
vn -0.9621 -0.1223 -0.2437
vn 0.1399 -0.0345 0.9895
vn -0.9460 -0.3011 0.1197
vn -0.1229 -0.3980 0.9091
vn -0.9090 -0.3432 0.2364
vn -0.2024 -0.3750 0.9047
vn -0.5696 -0.3539 0.7418
vn -0.6643 -0.3810 0.6431
vn 0.7713 -0.4148 0.4827
vn 0.7895 -0.4122 -0.4547
vn 0.8551 -0.0089 0.5183
vn 0.0630 -0.0154 0.9979
vn 0.8673 -0.0118 -0.4976
vn 0.7812 0.3984 0.4806
vn 0.0481 -0.4020 0.9143
vn 0.0469 -0.4031 -0.9139
vn 0.7993 0.3905 -0.4567
vn -0.3711 -0.1350 0.9187
vn 0.0446 -0.0024 -0.9990
vn 0.1366 0.4527 0.8811
vn -0.3305 -0.3821 0.8630
vn -0.2463 0.5691 0.7845
vn 0.0269 0.4054 -0.9137
vn -0.4194 0.0011 -0.9078
vn -0.2418 0.7794 0.5780
vn -0.3858 -0.3656 -0.8470
vn -0.4013 0.3890 -0.8292
vn -0.3856 -0.3656 -0.8471
vn -0.7627 -0.5929 -0.2582
vn -0.0423 -0.9989 0.0181
vn -0.2857 -0.9172 -0.2776
vn 0.0079 -0.9321 -0.3621
vn 0.3047 -0.9355 -0.1791
vn -0.4585 -0.8884 -0.0217
vn 0.3002 -0.9344 0.1914
vn -0.3157 -0.9073 0.2775
vn 0.0173 -0.9138 0.4056
vn -0.8785 -0.0279 0.4768
vn -0.8636 -0.4607 0.2046
vn -0.6248 -0.7131 0.3180
vn -0.9843 0.1545 0.0852
vn -0.8916 0.4422 0.0974
vn -0.5447 -0.0694 0.8357
vn -0.5176 -0.3460 0.7825
vn -0.5615 0.4807 0.6735
vn -0.5480 0.6800 0.4871
vn 0.9855 0.0301 -0.1666
vn 0.9801 0.0399 -0.1943
vn 0.9779 0.0434 -0.2042
vn 0.9690 0.0563 -0.2406
vn 0.0131 0.9988 0.0457
vn 0.3276 0.9268 -0.1837
vn 0.0941 0.9261 -0.3654
vn 0.3212 0.9277 0.1902
vn -0.2106 0.9693 -0.1269
vn 0.0145 0.9123 0.4092
vn -0.2906 0.8985 0.3290
vn 0.2391 -0.1300 0.9622
vn 0.1935 0.3012 0.9337
vn 0.2119 -0.0914 0.9730
vn 0.1104 -0.6957 0.7098
vn 0.0820 0.4715 0.8780
vn 0.1024 -0.8591 0.5014
vn 0.1267 0.4112 0.9027
vn 0.0042 0.5871 0.8095
vn 0.0049 -0.9843 0.1762
vn -0.0520 -0.9684 -0.2438
vn -0.0421 -0.9479 -0.3156
vn -0.1120 -0.6025 -0.7902
vn -0.1455 -0.6478 -0.7477
vn -0.1512 0.1160 -0.9817
vn -0.1826 0.0038 -0.9832
vn -0.1367 0.4311 -0.8919
vn -0.1465 0.4091 -0.9006
vn -0.1379 0.9675 -0.2119
vn -0.0537 0.9972 -0.0523
vn -0.0847 0.9823 -0.1671
vn -0.0784 0.9918 0.1007
vn -0.2077 0.8586 -0.4686
vn -0.8036 0.0427 0.5936
vn -0.5752 -0.7197 0.3887
vn -0.5560 -0.6969 0.4528
vn -0.5353 -0.6721 0.5115
vn -0.5775 0.7187 0.3872
vn -0.5758 0.7186 0.3898
vn -0.5746 0.7186 0.3915
usemtl Material.001
s 1
f 1/1/1 2/2/2 3/3/3
f 1/1/1 72/4/4 2/2/2
f 3/3/3 2/2/2 4/5/5
f 71/6/6 72/4/4 1/1/1
f 4/5/5 54/7/7 3/3/3
f 71/6/6 37/8/8 72/4/4
f 56/9/9 54/7/7 4/5/5
f 39/10/10 37/8/8 71/6/6
f 55/11/11 54/7/7 56/9/9
f 38/12/12 37/8/8 39/10/10
f 53/13/13 54/7/7 55/11/11
f 36/14/14 37/8/8 38/12/12
f 55/11/11 76/15/15 53/13/13
f 36/14/14 38/12/12 32/16/16
f 53/13/13 76/15/15 77/17/17
f 32/16/16 38/12/12 33/18/18
f 76/15/15 34/19/19 77/17/17
f 32/16/16 33/18/18 34/19/19
f 77/17/17 34/19/19 35/20/20
f 34/19/19 33/18/18 35/20/20
f 5/21/21 6/22/22 7/23/23
f 19/24/24 5/21/21 7/23/23
f 7/23/23 6/22/22 8/25/25
f 7/23/23 18/26/26 19/24/24
f 82/27/27 5/21/21 19/24/24
f 63/28/28 8/25/25 6/22/22
f 18/26/26 7/23/23 58/29/29
f 83/30/30 82/27/27 19/24/24
f 57/31/31 8/25/25 63/28/28
f 19/24/24 18/26/26 20/32/32
f 8/25/25 57/31/31 58/29/29
f 58/29/29 7/23/23 8/25/25
f 81/33/33 82/27/27 83/30/30
f 19/24/24 20/32/32 26/34/34
f 58/29/29 57/31/31 59/35/35
f 57/31/31 63/28/28 73/36/36
f 83/30/30 19/24/24 26/34/34
f 26/34/34 20/32/32 27/37/37
f 73/36/36 59/35/35 57/31/31
f 73/36/36 63/28/28 74/38/38
f 78/39/39 59/35/35 73/36/36
f 88/40/40 73/36/36 74/38/38
f 84/41/41 93/42/41 85/43/41
f 9/44/42 10/45/43 11/46/44
f 21/47/45 9/44/42 11/46/44
f 9/44/42 75/48/46 10/45/43
f 21/47/45 22/49/47 9/44/42
f 9/44/42 31/50/48 75/48/46
f 9/44/42 22/49/47 30/51/49
f 30/51/49 31/50/48 9/44/42
f 12/52/50 13/53/51 14/54/52
f 12/52/50 28/55/53 13/53/51
f 28/55/53 12/52/50 29/56/54
f 23/57/55 12/52/50 24/58/56
f 23/57/55 52/59/57 12/52/50
f 52/59/57 25/60/58 12/52/50
f 15/61/59 16/62/60 17/63/61
f 86/64/62 17/63/61 16/62/60
f 40/65/63 41/66/64 42/67/65
f 40/65/63 62/68/66 41/66/64
f 40/65/63 42/67/65 70/69/67
f 61/70/68 62/68/66 40/65/63
f 40/65/63 70/69/67 60/71/69
f 60/71/69 61/70/68 40/65/63
f 43/72/70 44/73/71 45/74/72
f 50/75/73 43/72/70 45/74/72
f 45/74/72 44/73/71 46/76/74
f 43/72/70 50/75/73 51/77/75
f 91/78/76 46/76/74 44/73/71
f 90/79/77 46/76/74 91/78/76
f 51/77/75 50/75/73 87/80/78
f 87/80/78 79/81/79 51/77/75
f 80/82/80 79/81/79 87/80/78
f 67/83/81 79/81/79 80/82/80
f 65/84/82 79/81/79 67/83/81
f 66/85/83 65/84/82 67/83/81
f 64/86/84 65/84/82 66/85/83
f 69/87/85 64/86/84 66/85/83
f 68/88/86 64/86/84 69/87/85
f 47/89/87 48/90/88 49/91/89
f 47/89/87 89/92/90 48/90/88
f 47/89/87 49/91/89 92/93/91
f 94/94/92 95/95/93 100/96/94
f 94/94/92 100/96/94 96/97/95
f 99/98/96 94/94/92 98/99/97
f 97/100/98 98/99/97 94/94/92
