# Blender v2.82 (sub 7) OBJ File: ''
# www.blender.org
mtllib barril.mtl
o barrel_barrel_Barrel_Mesh
v -0.003558 0.000025 -0.016205
v -0.011179 0.052863 -0.012262
v -0.011752 0.052020 -0.012892
v -0.003558 0.052870 -0.016205
v -0.003740 0.052028 -0.017037
v -0.003741 0.000869 -0.017034
v -0.008020 0.000866 -0.015489
v -0.011180 0.000017 -0.012262
v -0.013970 0.000011 -0.008954
v -0.014686 0.000855 -0.009411
v -0.016619 0.000849 -0.005293
v -0.015809 0.000005 -0.005036
v -0.012890 0.051981 0.011729
v -0.017421 0.000841 -0.000815
v -0.016619 0.052007 -0.005296
v -0.014686 0.052014 -0.009414
v -0.011753 0.000861 -0.012889
v -0.008019 0.052025 -0.015492
v -0.005036 0.052820 0.015786
v -0.005293 0.051975 0.016595
v -0.008953 0.052822 0.013947
v -0.009412 0.051977 0.014662
v -0.015490 0.051987 0.007995
v -0.014734 0.052831 0.007606
v -0.017035 0.051993 0.003716
v -0.017420 0.052000 -0.000817
v -0.016570 0.052844 -0.000777
v -0.015808 0.052850 -0.005037
v -0.013969 0.052857 -0.008954
v -0.016571 -0.000002 -0.000776
v -0.016205 -0.000008 0.003536
v -0.017036 0.000834 0.003719
v -0.012262 -0.000020 0.011157
v -0.015491 0.000828 0.007998
v -0.009413 0.000819 0.014664
v -0.005036 -0.000026 0.015786
v -0.000776 -0.000026 0.016548
v -0.005294 0.000816 0.016598
v -0.000816 0.000816 0.017399
v -0.012890 0.000823 0.011731
v 0.011157 0.052828 0.012239
v 0.007997 0.051979 0.015466
v -0.000815 0.051975 0.017396
v 0.013947 -0.000011 0.008931
v 0.014663 0.000831 0.009391
v 0.016596 0.000838 0.005273
v 0.015786 -0.000005 0.005013
v 0.012868 0.052023 -0.011754
v 0.017398 0.000845 0.000794
v 0.016597 0.051997 0.005270
v 0.011730 0.000825 0.012869
v 0.007997 0.000820 0.015469
v 0.003717 0.000817 0.017014
v 0.003718 0.051976 0.017011
v 0.000754 0.052872 -0.016571
v 0.005272 0.052029 -0.016621
v 0.012239 0.052865 -0.011180
v 0.008931 0.052869 -0.013970
v 0.009390 0.052027 -0.014688
v 0.015468 0.052017 -0.008021
v 0.016549 0.052847 0.000753
v 0.016182 0.052854 -0.003559
v 0.017013 0.052011 -0.003742
v 0.017398 0.052004 0.000791
v 0.014664 0.051990 0.009388
v 0.011731 0.051984 0.012866
v 0.014712 0.000015 -0.007629
v 0.017013 0.000852 -0.003739
v 0.015467 0.000859 -0.008018
v 0.012867 0.000864 -0.011752
v 0.012239 0.000020 -0.011180
v 0.009390 0.000868 -0.014685
v 0.005013 0.000026 -0.015809
v 0.005271 0.000870 -0.016618
v 0.000793 0.052029 -0.017422
v 0.000793 0.000871 -0.017419
v 0.003536 -0.000025 0.016182
v 0.011157 -0.000017 0.012239
v 0.007606 -0.000022 0.014712
v -0.000011 0.000000 -0.000011
v 0.016548 0.000002 0.000754
v 0.016182 0.000008 -0.003558
v 0.008931 0.000023 -0.013970
v 0.000754 0.000026 -0.016571
v -0.007629 0.000022 -0.014735
v -0.014735 -0.000015 0.007606
v -0.008954 -0.000024 0.013947
v -0.016204 0.052837 0.003535
v -0.007628 0.052867 -0.014735
v 0.005014 0.052871 -0.015809
v -0.000011 0.052845 -0.000012
v 0.014713 0.052860 -0.007629
v 0.015786 0.052840 0.005013
v 0.013948 0.052834 0.008931
v 0.007606 0.052824 0.014712
v 0.003536 0.052821 0.016182
v -0.000776 0.052819 0.016548
v -0.012261 0.052826 0.011157
vt 0.108800 -1.995600
vt 0.023900 -1.984800
vt 0.029700 -1.995600
vt 0.183400 -1.505200
vt 0.264500 -1.516800
vt 0.263700 -1.505200
vt 0.183400 -1.516800
vt 0.103400 -1.505200
vt 0.101800 -1.516800
vt 0.025300 -1.505000
vt 0.022700 -1.516800
vt 0.107500 -1.984800
vt 0.188200 -1.995600
vt 0.187500 -1.984800
vt 0.267700 -1.995600
vt 0.267100 -1.984800
vt 0.347600 -1.995600
vt 0.347500 -1.984800
vt 0.427900 -1.995600
vt 0.428200 -1.984800
vt 0.507900 -1.995600
vt 0.743600 -1.984700
vt 0.832800 -1.516800
vt 0.750400 -1.516800
vt 0.665800 -1.984700
vt 0.667900 -1.516800
vt 0.587500 -1.984700
vt 0.585900 -1.516800
vt 0.508300 -1.984800
vt 0.504700 -1.516800
vt 0.424400 -1.516800
vt 0.344600 -1.516800
vt 0.912700 -1.505100
vt 0.997400 -1.516800
vt 0.992000 -1.505000
vt 0.915200 -1.516800
vt 0.831700 -1.505100
vt 0.750100 -1.505000
vt 0.668100 -1.505000
vt 0.586100 -1.505000
vt 0.504800 -1.505000
vt 0.424100 -1.505100
vt 0.343900 -1.505100
vt 0.587200 -1.995600
vt 0.665800 -1.995600
vt 0.744000 -1.995600
vt 0.822200 -1.995600
vt 0.821800 -1.984700
vt 0.900500 -1.995600
vt 0.900900 -1.984700
vt 0.978400 -1.995600
vt 0.981400 -1.984800
vt 0.108800 -1.995600
vt 0.023900 -1.984800
vt 0.029700 -1.995600
vt 0.183400 -1.505200
vt 0.264500 -1.516800
vt 0.263700 -1.505200
vt 0.183400 -1.516800
vt 0.103400 -1.505200
vt 0.101800 -1.516800
vt 0.025300 -1.505000
vt 0.022700 -1.516800
vt 0.107500 -1.984800
vt 0.188200 -1.995600
vt 0.187500 -1.984800
vt 0.267700 -1.995600
vt 0.267100 -1.984800
vt 0.347600 -1.995600
vt 0.347500 -1.984800
vt 0.427900 -1.995600
vt 0.428200 -1.984800
vt 0.507900 -1.995600
vt 0.743600 -1.984700
vt 0.832800 -1.516800
vt 0.750400 -1.516800
vt 0.665800 -1.984700
vt 0.667900 -1.516800
vt 0.587500 -1.984700
vt 0.585900 -1.516800
vt 0.508300 -1.984800
vt 0.504700 -1.516800
vt 0.424400 -1.516800
vt 0.344600 -1.516800
vt 0.912700 -1.505100
vt 0.997400 -1.516800
vt 0.992000 -1.505000
vt 0.915200 -1.516800
vt 0.831700 -1.505100
vt 0.750100 -1.505000
vt 0.668100 -1.505000
vt 0.586100 -1.505000
vt 0.504800 -1.505000
vt 0.424100 -1.505100
vt 0.343900 -1.505100
vt 0.587200 -1.995600
vt 0.665800 -1.995600
vt 0.744000 -1.995600
vt 0.822200 -1.995600
vt 0.821800 -1.984700
vt 0.900500 -1.995600
vt 0.900900 -1.984700
vt 0.978400 -1.995600
vt 0.981400 -1.984800
vt 0.499400 -1.251900
vt 0.022800 -1.315500
vt 0.072100 -1.374800
vt 0.005900 -1.251900
vt 0.022800 -1.188300
vt 0.072100 -1.129000
vt 0.150500 -1.078100
vt 0.252700 -1.039100
vt 0.371700 -1.014500
vt 0.499400 -1.006200
vt 0.627200 -1.014500
vt 0.746200 -1.039100
vt 0.848400 -1.078100
vt 0.926800 -1.129000
vt 0.976100 -1.188300
vt 0.993000 -1.251900
vt 0.976100 -1.315500
vt 0.926800 -1.374800
vt 0.848400 -1.425700
vt 0.746200 -1.464800
vt 0.627200 -1.489300
vt 0.499400 -1.497700
vt 0.371700 -1.489300
vt 0.252700 -1.464800
vt 0.150500 -1.425700
vt 0.499400 -1.251900
vt 0.627200 -1.489300
vt 0.746200 -1.464800
vt 0.499400 -1.497700
vt 0.371700 -1.489300
vt 0.252700 -1.464800
vt 0.150500 -1.425700
vt 0.072100 -1.374800
vt 0.022800 -1.315500
vt 0.005900 -1.251900
vt 0.022800 -1.188300
vt 0.072100 -1.129000
vt 0.150500 -1.078100
vt 0.252700 -1.039100
vt 0.371700 -1.014500
vt 0.499400 -1.006200
vt 0.627200 -1.014500
vt 0.746200 -1.039100
vt 0.848400 -1.078100
vt 0.926800 -1.129000
vt 0.976100 -1.188300
vt 0.993000 -1.251900
vt 0.976100 -1.315500
vt 0.926800 -1.374800
vt 0.848400 -1.425700
vn -0.0869 -0.9128 -0.3991
vn 0.0429 -0.3731 -0.9268
vn 0.0190 -0.9127 -0.4082
vn -0.1873 0.9139 -0.3602
vn -0.6251 0.3742 -0.6850
vn -0.2745 0.9138 -0.2994
vn -0.4263 0.3743 -0.8235
vn -0.0873 0.9139 -0.3963
vn -0.1986 0.3744 -0.9058
vn 0.0186 0.9140 -0.4053
vn 0.0428 0.3745 -0.9263
vn -0.1983 -0.3731 -0.9063
vn -0.1870 -0.9128 -0.3631
vn -0.4261 -0.3731 -0.8242
vn -0.2742 -0.9129 -0.3023
vn -0.6247 -0.3733 -0.6858
vn -0.3427 -0.9131 -0.2211
vn -0.7809 -0.3734 -0.5008
vn -0.3878 -0.9132 -0.1248
vn -0.8838 -0.3736 -0.2817
vn -0.4065 -0.9134 -0.0202
vn -0.6855 -0.3743 0.6245
vn -0.5003 0.3731 0.7813
vn -0.6853 0.3732 0.6253
vn -0.8239 -0.3741 0.4257
vn -0.8238 0.3733 0.4266
vn -0.9061 -0.3740 0.1980
vn -0.9060 0.3735 0.1990
vn -0.9265 -0.3738 -0.0433
vn -0.9266 0.3737 -0.0423
vn -0.8840 0.3739 -0.2807
vn -0.7812 0.3741 -0.4999
vn -0.1236 0.9127 0.3895
vn -0.0429 0.3730 0.9268
vn -0.0190 0.9127 0.4082
vn -0.2811 0.3731 0.8842
vn -0.2198 0.9128 0.3443
vn -0.3010 0.9129 0.2757
vn -0.3618 0.9130 0.1885
vn -0.3979 0.9132 0.0885
vn -0.4069 0.9133 -0.0174
vn -0.3882 0.9135 -0.1220
vn -0.3430 0.9136 -0.2182
vn -0.3976 -0.9136 0.0857
vn -0.3615 -0.9137 0.1857
vn -0.3007 -0.9138 0.2729
vn -0.2195 -0.9139 0.3415
vn -0.5004 -0.3743 0.7807
vn -0.1233 -0.9140 0.3866
vn -0.2812 -0.3745 0.8836
vn -0.0186 -0.9140 0.4053
vn -0.0427 -0.3745 0.9263
vn 0.0873 -0.9139 0.3963
vn 0.1869 0.9128 0.3631
vn 0.6247 0.3733 0.6858
vn 0.2741 0.9129 0.3023
vn 0.4261 0.3731 0.8242
vn 0.0870 0.9127 0.3992
vn 0.1983 0.3731 0.9063
vn 0.1986 -0.3744 0.9058
vn 0.1873 -0.9139 0.3602
vn 0.4263 -0.3743 0.8235
vn 0.2745 -0.9138 0.2994
vn 0.6250 -0.3742 0.6850
vn 0.3430 -0.9136 0.2182
vn 0.7812 -0.3741 0.4999
vn 0.3882 -0.9135 0.1220
vn 0.8840 -0.3738 0.2807
vn 0.4069 -0.9133 0.0174
vn 0.6854 -0.3733 -0.6253
vn 0.5004 0.3744 -0.7807
vn 0.6855 0.3743 -0.6245
vn 0.8238 -0.3734 -0.4266
vn 0.8239 0.3741 -0.4257
vn 0.9060 -0.3735 -0.1990
vn 0.9061 0.3740 -0.1980
vn 0.9266 -0.3737 0.0423
vn 0.9265 0.3738 0.0433
vn 0.8838 0.3736 0.2817
vn 0.7809 0.3734 0.5008
vn 0.1233 0.9140 -0.3866
vn 0.2812 0.3744 -0.8836
vn 0.2195 0.9139 -0.3414
vn 0.3007 0.9139 -0.2729
vn 0.3615 0.9137 -0.1857
vn 0.3976 0.9136 -0.0857
vn 0.4065 0.9134 0.0202
vn 0.3879 0.9132 0.1249
vn 0.3427 0.9131 0.2211
vn 0.3979 -0.9131 -0.0886
vn 0.3618 -0.9130 -0.1885
vn 0.3010 -0.9129 -0.2757
vn 0.2198 -0.9128 -0.3443
vn 0.5003 -0.3731 -0.7813
vn 0.1236 -0.9127 -0.3894
vn 0.2811 -0.3731 -0.8842
vn 0.0002 -1.0000 -0.0016
vn -0.0002 1.0000 0.0016
usemtl _Barrel_ExplosiveBarrel
s 1
f 1/1/1 76/2/2 84/3/3
f 89/4/4 3/5/5 2/6/6
f 3/5/5 89/4/4 18/7/7
f 4/8/8 18/7/7 89/4/4
f 18/7/7 4/8/8 5/9/9
f 55/10/10 5/9/9 4/8/8
f 5/9/9 55/10/10 75/11/11
f 76/2/2 5/9/9 75/11/11
f 5/9/9 76/2/2 6/12/12
f 76/2/2 1/1/1 6/12/12
f 6/12/12 1/1/1 85/13/13
f 6/12/12 85/13/13 7/14/14
f 8/15/15 7/14/14 85/13/13
f 7/14/14 8/15/15 17/16/16
f 9/17/17 17/16/16 8/15/15
f 17/16/16 9/17/17 10/18/18
f 12/19/19 10/18/18 9/17/17
f 10/18/18 12/19/19 11/20/20
f 30/21/21 11/20/20 12/19/19
f 40/22/22 22/23/23 13/24/24
f 13/24/24 34/25/25 40/22/22
f 34/25/25 13/24/24 23/26/26
f 23/26/26 32/27/27 34/25/25
f 32/27/27 23/26/26 25/28/28
f 25/28/28 14/29/29 32/27/27
f 14/29/29 25/28/28 26/30/30
f 26/30/30 11/20/20 14/29/29
f 11/20/20 26/30/30 15/31/31
f 15/31/31 10/18/18 11/20/20
f 10/18/18 15/31/31 16/32/32
f 16/32/32 17/16/16 10/18/18
f 17/16/16 16/32/32 3/5/5
f 3/5/5 7/14/14 17/16/16
f 7/14/14 3/5/5 18/7/7
f 18/7/7 6/12/12 7/14/14
f 6/12/12 18/7/7 5/9/9
f 19/33/33 43/34/34 97/35/35
f 43/34/34 19/33/33 20/36/36
f 21/37/37 20/36/36 19/33/33
f 20/36/36 21/37/37 22/23/23
f 98/38/38 22/23/23 21/37/37
f 22/23/23 98/38/38 13/24/24
f 24/39/39 13/24/24 98/38/38
f 13/24/24 24/39/39 23/26/26
f 88/40/40 23/26/26 24/39/39
f 23/26/26 88/40/40 25/28/28
f 27/41/41 25/28/28 88/40/40
f 25/28/28 27/41/41 26/30/30
f 28/42/42 26/30/30 27/41/41
f 26/30/30 28/42/42 15/31/31
f 29/43/43 15/31/31 28/42/42
f 15/31/31 29/43/43 16/32/32
f 2/6/6 16/32/32 29/43/43
f 16/32/32 2/6/6 3/5/5
f 11/20/20 30/21/21 14/29/29
f 31/44/44 14/29/29 30/21/21
f 14/29/29 31/44/44 32/27/27
f 86/45/45 32/27/27 31/44/44
f 32/27/27 86/45/45 34/25/25
f 33/46/46 34/25/25 86/45/45
f 34/25/25 33/46/46 40/22/22
f 87/47/47 40/22/22 33/46/46
f 40/22/22 87/47/47 35/48/48
f 36/49/49 35/48/48 87/47/47
f 35/48/48 36/49/49 38/50/50
f 37/51/51 38/50/50 36/49/49
f 38/50/50 37/51/51 39/52/52
f 43/34/34 38/50/50 39/52/52
f 38/50/50 43/34/34 20/36/36
f 20/36/36 35/48/48 38/50/50
f 35/48/48 20/36/36 22/23/23
f 22/23/23 40/22/22 35/48/48
f 77/53/53 39/54/52 37/55/51
f 95/56/54 66/57/55 41/58/56
f 66/57/55 95/56/54 42/59/57
f 96/60/58 42/59/57 95/56/54
f 42/59/57 96/60/58 54/61/59
f 97/62/35 54/61/59 96/60/58
f 54/61/59 97/62/35 43/63/34
f 39/54/52 54/61/59 43/63/34
f 54/61/59 39/54/52 53/64/60
f 39/54/52 77/53/53 53/64/60
f 79/65/61 53/64/60 77/53/53
f 53/64/60 79/65/61 52/66/62
f 78/67/63 52/66/62 79/65/61
f 52/66/62 78/67/63 51/68/64
f 44/69/65 51/68/64 78/67/63
f 51/68/64 44/69/65 45/70/66
f 47/71/67 45/70/66 44/69/65
f 45/70/66 47/71/67 46/72/68
f 81/73/69 46/72/68 47/71/67
f 70/74/70 59/75/71 48/76/72
f 48/76/72 69/77/73 70/74/70
f 69/77/73 48/76/72 60/78/74
f 60/78/74 68/79/75 69/77/73
f 68/79/75 60/78/74 63/80/76
f 63/80/76 49/81/77 68/79/75
f 49/81/77 63/80/76 64/82/78
f 64/82/78 46/72/68 49/81/77
f 46/72/68 64/82/78 50/83/79
f 50/83/79 45/70/66 46/72/68
f 45/70/66 50/83/79 65/84/80
f 65/84/80 51/68/64 45/70/66
f 51/68/64 65/84/80 66/57/55
f 66/57/55 52/66/62 51/68/64
f 52/66/62 66/57/55 42/59/57
f 42/59/57 53/64/60 52/66/62
f 53/64/60 42/59/57 54/61/59
f 90/85/81 75/86/11 55/87/10
f 75/86/11 90/85/81 56/88/82
f 58/89/83 56/88/82 90/85/81
f 56/88/82 58/89/83 59/75/71
f 57/90/84 59/75/71 58/89/83
f 59/75/71 57/90/84 48/76/72
f 92/91/85 48/76/72 57/90/84
f 48/76/72 92/91/85 60/78/74
f 62/92/86 60/78/74 92/91/85
f 60/78/74 62/92/86 63/80/76
f 61/93/87 63/80/76 62/92/86
f 63/80/76 61/93/87 64/82/78
f 93/94/88 64/82/78 61/93/87
f 64/82/78 93/94/88 50/83/79
f 94/95/89 50/83/79 93/94/88
f 50/83/79 94/95/89 65/84/80
f 41/58/56 65/84/80 94/95/89
f 65/84/80 41/58/56 66/57/55
f 46/72/68 81/73/69 49/81/77
f 82/96/90 49/81/77 81/73/69
f 49/81/77 82/96/90 68/79/75
f 67/97/91 68/79/75 82/96/90
f 68/79/75 67/97/91 69/77/73
f 71/98/92 69/77/73 67/97/91
f 69/77/73 71/98/92 70/74/70
f 83/99/93 70/74/70 71/98/92
f 70/74/70 83/99/93 72/100/94
f 73/101/95 72/100/94 83/99/93
f 72/100/94 73/101/95 74/102/96
f 84/103/3 74/102/96 73/101/95
f 74/102/96 84/103/3 76/104/2
f 75/86/11 74/102/96 76/104/2
f 74/102/96 75/86/11 56/88/82
f 56/88/82 72/100/94 74/102/96
f 72/100/94 56/88/82 59/75/71
f 59/75/71 70/74/70 72/100/94
f 80/105/97 36/106/49 87/107/47
f 80/105/97 37/108/51 36/106/49
f 80/105/97 77/109/53 37/108/51
f 80/105/97 79/110/61 77/109/53
f 80/105/97 78/111/63 79/110/61
f 80/105/97 44/112/65 78/111/63
f 80/105/97 47/113/67 44/112/65
f 80/105/97 81/114/69 47/113/67
f 80/105/97 82/115/90 81/114/69
f 80/105/97 67/116/91 82/115/90
f 80/105/97 71/117/92 67/116/91
f 80/105/97 83/118/93 71/117/92
f 80/105/97 73/119/95 83/118/93
f 80/105/97 84/120/3 73/119/95
f 80/105/97 1/121/1 84/120/3
f 85/122/13 1/121/1 80/105/97
f 80/105/97 8/123/15 85/122/13
f 80/105/97 9/124/17 8/123/15
f 80/105/97 12/125/19 9/124/17
f 80/105/97 30/126/21 12/125/19
f 80/105/97 31/127/44 30/126/21
f 80/105/97 86/128/45 31/127/44
f 80/105/97 33/129/46 86/128/45
f 80/105/97 87/107/47 33/129/46
f 91/130/98 88/131/40 24/132/39
f 91/130/98 27/133/41 88/131/40
f 91/130/98 28/134/42 27/133/41
f 91/130/98 29/135/43 28/134/42
f 91/130/98 2/136/6 29/135/43
f 91/130/98 89/137/4 2/136/6
f 91/130/98 4/138/8 89/137/4
f 91/130/98 55/139/10 4/138/8
f 91/130/98 90/140/81 55/139/10
f 91/130/98 58/141/83 90/140/81
f 91/130/98 57/142/84 58/141/83
f 91/130/98 92/143/85 57/142/84
f 91/130/98 62/144/86 92/143/85
f 91/130/98 61/145/87 62/144/86
f 91/130/98 93/146/88 61/145/87
f 91/130/98 94/147/89 93/146/88
f 91/130/98 41/148/56 94/147/89
f 91/130/98 95/149/54 41/148/56
f 91/130/98 96/150/58 95/149/54
f 91/130/98 97/151/35 96/150/58
f 91/130/98 19/152/33 97/151/35
f 91/130/98 21/153/37 19/152/33
f 91/130/98 98/154/38 21/153/37
f 91/130/98 24/132/39 98/154/38
