# Blender v2.82 (sub 7) OBJ File: 'Lampara.blend'
# www.blender.org
mtllib Lampara.mtl
o Cylinder
v 0.000000 0.002312 -1.395455
v -0.002414 2.885884 -0.950658
v 0.697728 0.002312 -1.208500
v 0.497586 2.885884 -0.816683
v 1.208500 0.002312 -0.697728
v 0.863612 2.885884 -0.450658
v 1.395455 0.002312 0.000000
v 0.997586 2.885884 0.049342
v 1.208499 0.002312 0.697728
v 0.863612 2.885884 0.549342
v 0.697728 0.002312 1.208499
v 0.497586 2.885884 0.915368
v 0.000000 0.002312 1.395455
v -0.002413 2.885884 1.049342
v -0.697727 0.002312 1.208500
v -0.502413 2.885884 0.915368
v -1.208499 0.002312 0.697728
v -0.868439 2.885884 0.549343
v -1.395455 0.002312 0.000001
v -1.002414 2.885884 0.049343
v -1.208500 0.002312 -0.697727
v -0.868439 2.885884 -0.450657
v -0.697728 0.002312 -1.208499
v -0.502414 2.885884 -0.816683
v -0.002414 2.885884 -0.512783
v 0.278649 2.885884 -0.437472
v 0.484401 2.885884 -0.231720
v 0.559712 2.885884 0.049342
v 0.484401 2.885884 0.330405
v 0.278649 2.885884 0.536157
v -0.002413 2.885884 0.611468
v -0.283476 2.885884 0.536157
v -0.489228 2.885884 0.330405
v -0.564539 2.885884 0.049343
v -0.489228 2.885884 -0.231720
v -0.283476 2.885884 -0.437472
v -0.000000 18.908176 -0.562125
v 0.281063 18.908176 -0.486815
v 0.486815 18.908176 -0.281062
v 0.562125 18.908176 0.000000
v 0.486815 18.908176 0.281063
v 0.281063 18.908176 0.486815
v 0.000000 18.908176 0.562125
v -0.281062 18.908176 0.486815
v -0.486815 18.908176 0.281063
v -0.562125 18.908176 0.000000
v -0.486815 18.908176 -0.281062
v -0.281063 18.908176 -0.486814
v 0.277860 19.630415 -0.573722
v 0.523814 19.507166 -0.478938
v 0.692887 19.418518 -0.259339
v 0.739777 19.388226 0.026234
v 0.651919 19.424406 0.301261
v 0.452855 19.517365 0.492049
v 0.195924 19.642191 0.547477
v -0.050030 19.765440 0.452693
v -0.219104 19.854088 0.233094
v -0.265994 19.884378 -0.052478
v -0.178136 19.848200 -0.327505
v 0.020928 19.755241 -0.518294
v 0.856691 20.229383 -0.462540
v 0.969658 20.025116 -0.382117
v 1.045431 19.881952 -0.195789
v 1.063706 19.838255 0.046516
v 1.019588 19.905731 0.279874
v 0.924897 20.066303 0.441756
v 0.805007 20.276945 0.488786
v 0.692041 20.481215 0.408363
v 0.616268 20.624378 0.222035
v 0.597993 20.668077 -0.020270
v 0.642110 20.600599 -0.253628
v 0.736801 20.440029 -0.415510
v 1.767119 20.300364 -1.060834
v 1.719825 20.111193 -0.320564
v 1.716725 19.974474 -0.163254
v 1.804366 20.292465 0.000000
v 1.707470 20.002642 0.238331
v 1.703794 20.159979 0.375002
v 1.752975 20.328533 1.081236
v 1.734852 20.523771 0.874513
v 1.755992 20.679281 0.909141
v 1.757500 20.669231 -0.007535
v 1.763065 20.665199 -0.926053
v 1.748871 20.495857 -0.879969
v 5.128762 20.476320 -1.362593
v 5.128762 20.476320 1.362593
v 5.128762 20.292465 1.362593
v 5.128762 20.660175 1.362593
v 5.128762 20.292465 -1.362593
v 5.128762 20.660175 -1.362593
v 5.128762 20.476320 0.000000
v 5.128762 20.292465 0.000000
v 5.128762 20.660175 0.000000
v 1.780933 20.480848 -0.003767
v 3.509503 19.508524 -0.000000
v 4.639523 19.942350 0.523741
v 3.077883 19.942350 0.847439
v 2.112725 19.942352 -0.000000
v 3.077883 19.942350 -0.847439
v 4.639523 19.942350 -0.523741
v 3.255805 19.625731 0.498108
v 4.173706 19.625731 0.307845
v 3.920011 19.880730 0.805959
v 4.837914 19.880732 -0.000000
v 4.173706 19.625731 -0.307845
v 2.688499 19.625734 -0.000000
v 2.434794 19.880732 0.498110
v 3.255805 19.625731 -0.498108
v 2.434794 19.880732 -0.498110
v 3.920011 19.880730 -0.805959
v 4.994719 20.293335 0.307847
v 4.994719 20.293335 -0.307847
v 3.509503 20.293335 0.996226
v 4.427416 20.293335 0.805964
v 2.024287 20.293335 0.307847
v 2.591589 20.293335 0.805964
v 2.591589 20.293335 -0.805964
v 2.024287 20.293335 -0.307847
v 4.427416 20.293335 -0.805964
v 3.509503 20.293335 -0.996226
vt 0.757677 0.777977
vt 0.712986 0.627950
vt 0.750914 0.627864
vt 0.858050 0.628896
vt 0.870640 0.775816
vt 0.835349 0.777271
vt 0.883340 0.627853
vt 0.913909 0.775816
vt 0.914347 0.627853
vt 0.953563 0.777271
vt 0.934663 0.620760
vt 0.917197 0.474000
vt 0.953779 0.472367
vt 0.908448 0.621930
vt 0.873757 0.474000
vt 0.849615 0.620760
vt 0.835099 0.472367
vt 0.831540 0.472976
vt 0.790972 0.622925
vt 0.795393 0.472388
vt 0.759875 0.622925
vt 0.751997 0.472388
vt 0.731916 0.623347
vt 0.712982 0.472976
vt 0.831794 0.627950
vt 0.788840 0.777977
vt 0.794401 0.627864
vt 0.924518 0.001508
vt 0.916169 0.031080
vt 0.897528 0.014972
vt 0.955683 0.001508
vt 0.931341 0.023511
vt 0.964031 0.031080
vt 0.948860 0.023511
vt 0.982672 0.014972
vt 0.972791 0.044189
vt 0.998255 0.065223
vt 0.998255 0.038294
vt 0.897528 0.088544
vt 0.931341 0.080005
vt 0.924518 0.102009
vt 0.955683 0.102009
vt 0.948860 0.080005
vt 0.982673 0.088544
vt 0.972791 0.059327
vt 0.881946 0.065223
vt 0.916170 0.072437
vt 0.964032 0.072437
vt 0.881946 0.038294
vt 0.907410 0.059327
vt 0.907410 0.044189
vt 0.597150 0.024225
vt 0.353319 0.828040
vt 0.582649 0.021867
vt 0.297910 0.977803
vt 0.019124 0.179727
vt 0.035979 0.175605
vt 0.662799 0.905080
vt 0.672076 0.073283
vt 0.677007 0.904372
vt 0.624227 0.013864
vt 0.635297 0.847081
vt 0.617817 0.846995
vt 0.336312 0.824480
vt 0.565642 0.018307
vt 0.689505 0.073133
vt 0.694436 0.904223
vt 0.608509 0.014023
vt 0.602099 0.847154
vt 0.550686 0.014500
vt 0.321356 0.820673
vt 0.705485 0.073582
vt 0.710416 0.904672
vt 0.281054 0.981925
vt 0.004620 0.183239
vt 0.050669 0.171976
vt 0.312600 0.974174
vt 0.641707 0.013950
vt 0.649857 0.847390
vt 0.650357 0.892348
vt 0.635389 0.896710
vt 0.367820 0.830398
vt 0.354266 0.860953
vt 0.022631 0.133060
vt 0.039894 0.135583
vt 0.660596 0.041961
vt 0.675286 0.046004
vt 0.617969 0.898245
vt 0.337109 0.863958
vt 0.692714 0.047542
vt 0.602762 0.896543
vt 0.322644 0.866781
vt 0.708209 0.046161
vt 0.007193 0.131777
vt 0.054355 0.138672
vt 0.060955 0.097985
vt 0.069488 0.106915
vt 0.656267 0.930784
vt 0.644344 0.938129
vt 0.383802 0.887574
vt 0.373906 0.894679
vt 0.050096 0.089248
vt 0.670576 0.013376
vt 0.682397 0.020600
vt 0.809614 0.006645
vt 0.794486 0.049345
vt 0.792425 0.004213
vt 0.363423 0.903784
vt 0.696980 0.022923
vt 0.780426 0.051624
vt 0.775861 0.008775
vt 0.355161 0.912450
vt 0.710416 0.019723
vt 0.039822 0.083047
vt 0.111335 0.062152
vt 0.112653 0.070975
vt 0.887420 0.137397
vt 0.938048 0.104529
vt 0.932316 0.142961
vt 0.405993 0.937183
vt 0.351334 0.918354
vt 0.417758 0.909490
vt 0.119483 0.079916
vt 0.891188 0.147434
vt 0.931457 0.151229
vt 0.809068 0.050285
vt 0.795253 0.109666
vt 0.875954 0.786503
vt 0.834213 0.827216
vt 0.873847 0.780217
vt 0.891351 0.160108
vt 0.936301 0.159730
vt 0.739951 0.109955
vt 0.407496 0.929024
vt 0.929411 0.172025
vt 0.887864 0.172025
vt 0.903133 0.230161
vt 0.893081 0.274782
vt 0.891838 0.229746
vt 0.309584 0.023766
vt 0.977962 0.542205
vt 0.966926 0.612303
vt 0.966926 0.542324
vt 0.594509 0.971917
vt 0.795692 0.467489
vt 0.730667 0.291893
vt 0.795721 0.294550
vt 0.795702 0.285047
vt 0.850444 0.109590
vt 0.877740 0.285047
vt 0.713665 0.285047
vt 0.859590 0.292616
vt 0.977962 0.472226
vt 0.966927 0.472345
vt 0.893937 0.185392
vt 0.880543 0.229332
vt 0.882127 0.174674
vt 0.955891 0.542443
vt 0.955891 0.472464
vt 0.408515 0.919778
vt 0.597150 0.962666
vt 0.955891 0.612422
vt 0.312600 0.032969
vt 0.881432 0.283842
vt 0.897717 0.791494
vt 0.915966 0.780339
vt 0.906899 0.798623
vt 0.915966 0.835444
vt 0.877603 0.826306
vt 0.885779 0.818130
vt 0.897150 0.835129
vt 0.897150 0.780334
vt 0.933531 0.363770
vt 0.917156 0.399137
vt 0.902932 0.351948
vt 0.905909 0.424040
vt 0.937937 0.432944
vt 0.931157 0.321164
vt 0.962826 0.349328
vt 0.954173 0.397518
vt 0.906809 0.244363
vt 0.904042 0.219147
vt 0.929545 0.235987
vt 0.960665 0.134538
vt 0.965568 0.177678
vt 0.939297 0.155568
vt 0.959298 0.811423
vt 0.955709 0.782772
vt 0.979991 0.796450
vt 0.959361 0.687673
vt 0.955709 0.650765
vt 0.980477 0.662628
vt 0.959535 0.762241
vt 0.955709 0.729593
vt 0.980579 0.755177
vt 0.964290 0.217444
vt 0.944874 0.238546
vt 0.941427 0.204299
vt 0.939297 0.110967
vt 0.980537 0.827866
vt 0.980477 0.711347
vt 0.906809 0.190567
vt 0.926879 0.174091
vt 0.929545 0.204367
vt 0.980579 0.627631
vt 0.956593 0.833604
vt 0.980537 0.765285
vt 0.965568 0.105512
vt 0.983607 0.383135
vt 0.968885 0.421285
vt 0.983607 0.339299
vt 0.960591 0.306780
vt 0.929728 0.291383
vt 0.900696 0.309400
vt 0.881708 0.343756
vt 0.886695 0.387374
vt 0.730497 0.778039
vt 0.942764 0.628896
vt 0.877318 0.621930
vt 0.816876 0.623347
vt 0.815636 0.778039
vt 0.657868 0.073991
vt 0.266550 0.985437
vt 0.656267 0.014260
vt 0.369518 0.858571
vt 0.881056 0.132688
vt 0.422088 0.901396
vt 0.876673 0.827216
vt 0.903318 0.276977
vt 0.306569 0.014563
vt 0.977962 0.612184
vt 0.591868 0.981169
vt 0.713665 0.467489
vt 0.877718 0.467489
vt 0.903318 0.183398
vn -0.0001 0.7089 -0.7053
vn 0.4932 0.1506 -0.8567
vn 0.0001 0.1524 -0.9883
vn 0.3538 0.7082 -0.6109
vn 0.8557 0.1449 -0.4967
vn 0.6140 0.7062 -0.3525
vn 0.9906 0.1367 -0.0027
vn 0.7110 0.7032 0.0020
vn 0.8600 0.1283 0.4938
vn 0.6174 0.7002 0.3586
vn 0.4975 0.1218 0.8588
vn 0.3571 0.6979 0.6208
vn 0.0001 0.1191 0.9929
vn -0.3574 0.6976 0.6210
vn -0.4974 0.1210 0.8590
vn -0.6178 0.6997 0.3587
vn -0.8601 0.1268 0.4940
vn -0.7115 0.7026 0.0020
vn -0.9908 0.1351 -0.0027
vn -0.6145 0.7056 -0.3527
vn -0.8559 0.1435 -0.4969
vn -0.3541 0.7079 -0.6110
vn -0.4931 0.1498 -0.8570
vn -0.5516 0.7708 0.3188
vn -0.0001 0.6969 0.7171
vn -0.3182 0.7711 0.5515
vn 0.3182 0.7711 0.5515
vn 0.0000 0.7712 0.6366
vn 0.5517 0.7707 0.3188
vn 0.0000 0.7693 -0.6389
vn 0.3195 0.7694 -0.5531
vn 0.6378 0.7702 0.0003
vn -0.3195 0.7694 -0.5530
vn 0.5530 0.7697 -0.3189
vn -0.5529 0.7698 -0.3189
vn -0.6377 0.7703 0.0003
vn 0.4774 -0.0598 0.8766
vn -0.5162 0.0698 -0.8536
vn -0.0262 -0.0067 -0.9996
vn 0.8460 -0.1639 -0.5073
vn -0.8636 0.1276 0.4877
vn -0.9902 0.1396 0.0008
vn -0.0242 0.0228 0.9994
vn 0.9822 -0.1877 0.0006
vn -0.8652 0.1202 -0.4868
vn -0.5120 0.0872 0.8545
vn 0.8444 -0.1415 0.5166
vn 0.4754 -0.0937 -0.8748
vn -0.4848 0.3283 0.8107
vn -0.7651 0.4865 0.4217
vn 0.3757 -0.1722 0.9106
vn -0.3758 0.2850 -0.8818
vn 0.0591 0.0357 -0.9976
vn 0.4884 -0.2232 -0.8436
vn 0.7909 -0.4117 -0.4526
vn -0.8426 0.5343 -0.0682
vn -0.0716 0.0904 0.9933
vn 0.8820 -0.4664 0.0669
vn -0.7024 0.4639 -0.5398
vn 0.7247 -0.3780 0.5762
vn -0.1774 -0.0793 -0.9809
vn 0.2151 -0.5750 -0.7894
vn -0.4159 0.4562 0.7866
vn -0.3987 0.8421 0.3632
vn 0.4307 -0.6784 0.5951
vn 0.1097 -0.4947 0.8621
vn -0.3674 0.3493 -0.8619
vn 0.4839 -0.7434 -0.4617
vn -0.3660 0.9286 -0.0614
vn -0.2606 0.0346 0.9648
vn 0.5525 -0.8296 0.0805
vn -0.3663 0.8047 -0.4672
vn -0.5109 0.5370 -0.6712
vn -0.7491 0.1221 -0.6511
vn -0.4601 -0.3131 -0.8308
vn 0.6762 -0.6760 -0.2929
vn -0.4952 0.5763 0.6501
vn 0.6494 -0.6855 0.3291
vn 0.6275 -0.7779 0.0325
vn -0.4792 0.8776 -0.0125
vn -0.4524 -0.2870 0.8443
vn -0.0937 -0.9950 0.0331
vn -0.7460 0.1816 0.6407
vn 0.6302 -0.7678 0.1153
vn -0.9923 -0.1235 -0.0059
vn 0.6671 0.0094 -0.7449
vn 0.7083 0.7059 -0.0009
vn 0.6675 0.0120 0.7444
vn 1.0000 0.0000 0.0000
vn 0.7053 -0.7089 0.0018
vn 0.5419 0.5690 0.6185
vn 0.5423 0.5704 -0.6169
vn 0.5525 -0.5735 -0.6048
vn 0.5522 -0.5763 0.6024
vn 0.0020 -1.0000 0.0000
vn 0.2555 -0.9268 0.2751
vn -0.0940 -0.8972 0.4315
vn 0.5563 -0.5889 0.5862
vn 0.7035 -0.7107 0.0000
vn -0.3215 -0.9469 0.0000
vn -0.0940 -0.8972 -0.4315
vn 0.2555 -0.9268 -0.2751
vn 0.8391 -0.4166 0.3498
vn -0.1844 -0.5214 0.8331
vn 0.1700 -0.6016 0.7804
vn 0.0141 -0.3155 0.9488
vn -0.7692 -0.6389 0.0000
vn -0.5121 -0.6635 0.5454
vn -0.8268 -0.4043 0.3911
vn -0.1844 -0.5214 -0.8331
vn -0.5121 -0.6635 -0.5454
vn -0.4363 -0.3480 -0.8298
vn 0.5563 -0.5889 -0.5862
vn 0.1700 -0.6016 -0.7804
vn 0.4080 -0.3373 -0.8484
vn 0.4080 -0.3373 0.8484
vn -0.4363 -0.3480 0.8298
vn -0.8268 -0.4043 -0.3911
vn 0.0141 -0.3155 -0.9488
vn 0.8391 -0.4166 -0.3498
usemtl Lampara
s 1
f 2/1/1 3/2/2 1/3/3
f 4/4/4 5/5/5 3/6/2
f 6/7/6 7/8/7 5/5/5
f 8/9/8 9/10/9 7/8/7
f 10/11/10 11/12/11 9/13/9
f 12/14/12 13/15/13 11/12/11
f 13/15/13 16/16/14 15/17/15
f 15/18/15 18/19/16 17/20/17
f 17/20/17 20/21/18 19/22/19
f 19/22/19 22/23/20 21/24/21
f 21/25/21 24/26/22 23/27/23
f 23/27/23 2/1/1 1/3/3
f 16/28/14 33/29/24 18/30/16
f 14/31/25 32/32/26 16/28/14
f 14/31/25 30/33/27 31/34/28
f 12/35/12 29/36/29 30/33/27
f 8/37/8 29/36/29 10/38/10
f 24/39/22 25/40/30 2/41/1
f 4/42/4 25/40/30 26/43/31
f 6/44/6 28/45/32 8/37/8
f 22/46/20 36/47/33 24/39/22
f 4/42/4 27/48/34 6/44/6
f 20/49/18 35/50/35 22/46/20
f 18/30/16 34/51/36 20/49/18
f 29/52/29 42/53/37 30/54/27
f 25/55/30 48/56/38 37/57/39
f 26/58/31 39/59/40 27/60/34
f 34/61/36 45/62/41 46/63/42
f 30/54/27 43/64/43 31/65/28
f 27/60/34 40/66/44 28/67/32
f 35/68/35 46/63/42 47/69/45
f 32/70/26 43/64/43 44/71/46
f 28/67/32 41/72/47 29/73/29
f 36/74/33 47/75/45 48/56/38
f 25/55/30 38/76/48 26/77/31
f 33/78/24 44/79/46 45/62/41
f 45/62/41 56/80/49 57/81/50
f 41/82/47 54/83/51 42/53/37
f 37/57/39 60/84/52 49/85/53
f 39/59/40 50/86/54 51/87/55
f 46/63/42 57/81/50 58/88/56
f 42/53/37 55/89/57 43/64/43
f 40/66/44 51/87/55 52/90/58
f 47/69/45 58/88/56 59/91/59
f 43/64/43 56/92/49 44/71/46
f 41/72/47 52/90/58 53/93/60
f 48/56/38 59/94/59 60/84/52
f 38/76/48 49/85/53 50/95/54
f 50/95/54 61/96/61 62/97/62
f 57/81/50 68/98/63 69/99/64
f 54/83/51 65/100/65 66/101/66
f 49/85/53 72/102/67 61/96/61
f 51/87/55 62/103/62 63/104/68
f 57/105/50 70/106/69 58/107/56
f 55/89/57 66/101/66 67/108/70
f 52/90/58 63/104/68 64/109/71
f 58/107/56 71/110/72 59/111/59
f 56/92/49 67/108/70 68/112/63
f 53/93/60 64/109/71 65/113/65
f 60/84/52 71/114/72 72/102/67
f 72/102/67 83/115/73 84/116/74
f 62/117/62 73/118/75 74/119/76
f 68/112/63 81/120/77 69/121/64
f 65/100/65 78/122/78 66/101/66
f 61/96/61 84/116/74 73/123/75
f 63/124/68 74/119/76 75/125/79
f 69/126/64 82/127/80 70/106/69
f 66/128/66 79/129/81 67/130/70
f 64/131/71 75/125/79 76/132/82
f 71/110/72 82/127/80 83/133/73
f 67/108/70 80/134/83 68/112/63
f 64/131/71 77/135/84 65/136/65
f 82/137/80 84/138/74 94/139/85
f 83/115/73 85/140/86 84/116/74
f 93/141/87 86/142/88 91/143/89
f 86/144/88 81/120/77 80/134/83
f 92/145/90 79/146/81 76/147/82
f 93/148/87 81/149/77 88/150/91
f 83/133/73 93/148/87 90/151/92
f 73/152/75 92/145/90 76/147/82
f 90/153/92 91/143/89 85/154/86
f 80/155/83 82/137/80 94/139/85
f 80/155/83 76/156/82 79/157/81
f 85/154/86 92/158/90 89/159/93
f 86/144/88 79/160/81 87/161/94
f 91/143/89 87/162/94 92/158/90
f 73/123/75 85/140/86 89/163/93
f 76/156/82 84/138/74 73/164/75
f 77/165/84 76/166/82 78/167/78
f 76/166/82 79/168/81 78/167/78
f 75/169/79 74/170/76 76/171/82
f 76/171/82 74/170/76 73/172/75
f 95/173/95 102/174/96 101/175/97
f 96/176/98 102/174/96 104/177/99
f 95/173/95 101/175/97 106/178/100
f 95/173/95 106/178/100 108/179/101
f 95/173/95 108/179/101 105/180/102
f 96/181/98 104/182/99 111/183/103
f 97/184/104 103/185/105 113/186/106
f 98/187/107 107/188/108 115/189/109
f 99/190/110 109/191/111 117/192/112
f 100/193/113 110/194/114 119/195/115
f 96/196/98 111/197/103 114/198/116
f 97/184/104 113/186/106 116/199/117
f 98/187/107 115/189/109 118/200/118
f 99/190/110 117/192/112 120/201/119
f 100/202/113 119/203/115 112/204/120
f 119/195/115 110/194/114 120/201/119
f 110/194/114 99/190/110 120/201/119
f 117/192/112 109/191/111 118/205/118
f 109/206/111 98/187/107 118/200/118
f 115/189/109 107/188/108 116/207/117
f 107/208/108 97/184/104 116/199/117
f 113/186/106 103/185/105 114/198/116
f 103/185/105 96/196/98 114/198/116
f 111/183/103 104/182/99 112/204/120
f 104/182/99 100/202/113 112/204/120
f 105/180/102 110/209/114 100/210/113
f 105/180/102 108/179/101 110/209/114
f 108/179/101 99/211/110 110/209/114
f 108/179/101 109/212/111 99/211/110
f 108/179/101 106/178/100 109/212/111
f 106/178/100 98/213/107 109/212/111
f 106/178/100 107/214/108 98/213/107
f 106/178/100 101/175/97 107/214/108
f 101/175/97 97/215/104 107/214/108
f 104/177/99 105/180/102 100/210/113
f 104/177/99 102/174/96 105/180/102
f 102/174/96 95/173/95 105/180/102
f 101/175/97 103/216/105 97/215/104
f 101/175/97 102/174/96 103/216/105
f 102/174/96 96/176/98 103/216/105
f 2/1/1 4/217/4 3/2/2
f 4/4/4 6/7/6 5/5/5
f 6/7/6 8/9/8 7/8/7
f 8/9/8 10/218/10 9/10/9
f 10/11/10 12/14/12 11/12/11
f 12/14/12 14/219/25 13/15/13
f 13/15/13 14/219/25 16/16/14
f 15/18/15 16/220/14 18/19/16
f 17/20/17 18/19/16 20/21/18
f 19/22/19 20/21/18 22/23/20
f 21/25/21 22/221/20 24/26/22
f 23/27/23 24/26/22 2/1/1
f 16/28/14 32/32/26 33/29/24
f 14/31/25 31/34/28 32/32/26
f 14/31/25 12/35/12 30/33/27
f 12/35/12 10/38/10 29/36/29
f 8/37/8 28/45/32 29/36/29
f 24/39/22 36/47/33 25/40/30
f 4/42/4 2/41/1 25/40/30
f 6/44/6 27/48/34 28/45/32
f 22/46/20 35/50/35 36/47/33
f 4/42/4 26/43/31 27/48/34
f 20/49/18 34/51/36 35/50/35
f 18/30/16 33/29/24 34/51/36
f 29/52/29 41/82/47 42/53/37
f 25/55/30 36/74/33 48/56/38
f 26/58/31 38/222/48 39/59/40
f 34/61/36 33/78/24 45/62/41
f 30/54/27 42/53/37 43/64/43
f 27/60/34 39/59/40 40/66/44
f 35/68/35 34/61/36 46/63/42
f 32/70/26 31/65/28 43/64/43
f 28/67/32 40/66/44 41/72/47
f 36/74/33 35/223/35 47/75/45
f 25/55/30 37/57/39 38/76/48
f 33/78/24 32/224/26 44/79/46
f 45/62/41 44/79/46 56/80/49
f 41/82/47 53/225/60 54/83/51
f 37/57/39 48/56/38 60/84/52
f 39/59/40 38/222/48 50/86/54
f 46/63/42 45/62/41 57/81/50
f 42/53/37 54/83/51 55/89/57
f 40/66/44 39/59/40 51/87/55
f 47/69/45 46/63/42 58/88/56
f 43/64/43 55/89/57 56/92/49
f 41/72/47 40/66/44 52/90/58
f 48/56/38 47/75/45 59/94/59
f 38/76/48 37/57/39 49/85/53
f 50/95/54 49/85/53 61/96/61
f 57/81/50 56/80/49 68/98/63
f 54/83/51 53/225/60 65/100/65
f 49/85/53 60/84/52 72/102/67
f 51/87/55 50/86/54 62/103/62
f 57/105/50 69/126/64 70/106/69
f 55/89/57 54/83/51 66/101/66
f 52/90/58 51/87/55 63/104/68
f 58/107/56 70/106/69 71/110/72
f 56/92/49 55/89/57 67/108/70
f 53/93/60 52/90/58 64/109/71
f 60/84/52 59/94/59 71/114/72
f 72/102/67 71/114/72 83/115/73
f 62/117/62 61/226/61 73/118/75
f 68/112/63 80/134/83 81/120/77
f 65/100/65 77/227/84 78/122/78
f 61/96/61 72/102/67 84/116/74
f 63/124/68 62/117/62 74/119/76
f 69/126/64 81/149/77 82/127/80
f 66/128/66 78/228/78 79/129/81
f 64/131/71 63/124/68 75/125/79
f 71/110/72 70/106/69 82/127/80
f 67/108/70 79/160/81 80/134/83
f 64/131/71 76/132/82 77/135/84
f 82/137/80 83/229/73 84/138/74
f 83/115/73 90/230/92 85/140/86
f 93/141/87 88/231/91 86/142/88
f 86/144/88 88/232/91 81/120/77
f 92/145/90 87/233/94 79/146/81
f 93/148/87 82/127/80 81/149/77
f 83/133/73 82/127/80 93/148/87
f 73/152/75 89/234/93 92/145/90
f 90/153/92 93/141/87 91/143/89
f 80/155/83 81/235/77 82/137/80
f 80/155/83 94/139/85 76/156/82
f 85/154/86 91/143/89 92/158/90
f 86/144/88 80/134/83 79/160/81
f 91/143/89 86/142/88 87/162/94
f 73/123/75 84/116/74 85/140/86
f 76/156/82 94/139/85 84/138/74
