# 3ds Max Wavefront OBJ Exporter v0.97b - (c)2007 guruware
# File Created: 20.11.2019 17:19:27

mtllib StevenB.mtl

#
# object Plane001
#

v  -0.994917 5.486630 0.991114
v  -0.918193 5.362327 1.004646
v  -0.918193 5.486630 1.004646
v  -0.841465 5.486630 1.018173
v  -0.918193 5.610929 1.004646
v  -0.994917 5.486630 0.986847
v  -0.918193 5.486630 1.000378
v  -0.918193 5.362327 1.000378
v  -0.841465 5.486630 1.013906
v  -0.918193 5.610929 1.000378
v  -0.270941 5.435351 0.224390
v  -0.270941 5.311048 0.146480
v  -0.270941 5.435351 0.146480
v  -0.270941 5.435351 0.068567
v  -0.270941 5.559649 0.146480
v  -0.270941 5.435351 0.220122
v  -0.270941 5.435351 0.142213
v  -0.270941 5.311048 0.142213
v  -0.270941 5.435351 0.064299
v  -0.270941 5.559649 0.142213
v  -1.240976 4.831532 0.101614
v  -1.163362 4.707232 0.108402
v  -1.163362 4.831532 0.108402
v  -1.085748 4.831532 0.115193
v  -1.163362 4.955831 0.108402
v  -1.240976 4.831532 0.097346
v  -1.163362 4.831532 0.104134
v  -1.163362 4.707232 0.104134
v  -1.085748 4.831532 0.110925
v  -1.163362 4.955831 0.104134
v  -1.021536 4.180650 0.553346
v  -0.961850 4.056351 0.603425
v  -0.961850 4.180650 0.603425
v  -0.902169 4.180650 0.653508
v  -0.961850 4.304949 0.603425
v  -1.021536 4.180650 0.549079
v  -0.961850 4.180650 0.599158
v  -0.961850 4.056351 0.599158
v  -0.902169 4.180650 0.649240
v  -0.961850 4.304949 0.599158
v  -0.739154 4.247941 -0.126764
v  -0.700197 4.123642 -0.059291
v  -0.700197 4.247941 -0.059291
v  -0.661240 4.247941 0.008181
v  -0.700197 4.372241 -0.059291
v  -0.739154 4.247941 -0.131031
v  -0.700197 4.247941 -0.063559
v  -0.700197 4.123642 -0.063559
v  -0.661240 4.247941 0.003913
v  -0.700197 4.372241 -0.063559
v  -0.565744 4.226012 0.629902
v  -0.515665 4.101713 0.570220
v  -0.515665 4.226012 0.570220
v  -0.465587 4.226012 0.510535
v  -0.515665 4.350311 0.570220
v  -0.565744 4.226012 0.625634
v  -0.515665 4.226012 0.565953
v  -0.515665 4.101713 0.565953
v  -0.465587 4.226012 0.506268
v  -0.515665 4.350311 0.565953
v  -0.220756 4.679430 0.796858
v  -0.207228 4.555130 0.873587
v  -0.207228 4.679430 0.873587
v  -0.193701 4.679430 0.950311
v  -0.207228 4.803729 0.873587
v  -0.220756 4.679430 0.792591
v  -0.207228 4.679430 0.869319
v  -0.207228 4.555130 0.869319
v  -0.193701 4.679430 0.946043
v  -0.207228 4.803729 0.869319
v  -1.393386 4.753949 0.499626
v  -1.373221 4.629650 0.574882
v  -1.373221 4.753949 0.574882
v  -1.353055 4.753949 0.650138
v  -1.373221 4.878252 0.574882
v  -1.393386 4.753949 0.495358
v  -1.373221 4.753949 0.570614
v  -1.373221 4.629650 0.570614
v  -1.353055 4.753949 0.645870
v  -1.373221 4.878252 0.570614
v  -0.587965 5.274650 1.074681
v  -0.514752 5.150347 1.048036
v  -0.514752 5.274650 1.048036
v  -0.441539 5.274650 1.021390
v  -0.514752 5.398949 1.048036
v  -0.587965 5.274650 1.070413
v  -0.514752 5.274650 1.043768
v  -0.514752 5.150347 1.043768
v  -0.441539 5.274650 1.017122
v  -0.514752 5.398949 1.043768
v  -0.886162 4.299709 1.076295
v  -0.808547 4.175410 1.083083
v  -0.808547 4.299709 1.083083
v  -0.730933 4.299709 1.089874
v  -0.808547 4.424008 1.083083
v  -0.886162 4.299709 1.072028
v  -0.808547 4.299709 1.078815
v  -0.808547 4.175410 1.078815
v  -0.730933 4.299709 1.085606
v  -0.808547 4.424008 1.078815
v  -0.312894 4.831532 0.036260
v  -0.257803 4.707232 0.091350
v  -0.257803 4.831532 0.091350
v  -0.202713 4.831532 0.146441
v  -0.257803 4.955831 0.091350
v  -0.312894 4.831532 0.031992
v  -0.257803 4.831532 0.087083
v  -0.257803 4.707232 0.087083
v  -0.202713 4.831532 0.142173
v  -0.257803 4.955831 0.087083
# 110 vertices

vn -0.109900 -0.000000 0.993900
vn 0.109900 0.000000 -0.993900
vn 1.000000 0.000000 -0.000000
vn -1.000000 0.000000 0.000000
vn -1.000000 -0.000000 0.000000
vn -1.000000 -0.000000 -0.000000
vn -0.054800 0.000000 0.998500
vn -0.054800 -0.000000 0.998500
vn 0.054800 -0.000000 -0.998500
vn 0.054800 0.000000 -0.998500
vn -0.465500 0.000000 0.885100
vn -0.465500 -0.000000 0.885100
vn 0.465500 -0.000000 -0.885100
vn 0.465500 0.000000 -0.885100
vn -0.735500 0.000000 0.677500
vn -0.735500 -0.000000 0.677500
vn 0.735500 -0.000000 -0.677500
vn 0.735500 0.000000 -0.677500
vn 0.598400 0.000000 0.801200
vn 0.598400 -0.000000 0.801200
vn -0.598400 -0.000000 -0.801200
vn -0.598400 0.000000 -0.801200
vn -0.962600 0.000000 0.270800
vn -0.962600 -0.000000 0.270800
vn 0.962600 -0.000000 -0.270800
vn 0.962600 0.000000 -0.270800
vn -0.919500 0.000000 0.393100
vn -0.919500 -0.000000 0.393100
vn 0.919500 -0.000000 -0.393100
vn 0.919500 0.000000 -0.393100
vn 0.222400 0.000000 0.975000
vn 0.222400 -0.000000 0.975000
vn -0.222400 -0.000000 -0.975000
vn -0.222400 0.000000 -0.975000
vn -0.531100 0.000000 0.847300
vn -0.531100 -0.000000 0.847300
vn 0.531100 -0.000000 -0.847300
vn 0.531100 0.000000 -0.847300
# 38 vertex normals

vt 0.292200 0.713200 0.000000
vt 0.292300 0.713200 0.000000
vt 0.294500 0.685800 0.000000
vt 0.292200 0.660100 0.000000
vt 0.292000 0.660100 0.000000
# 5 texture coords

o Plane001
g Plane001
usemtl Material__542
s 1
f -110/-5/-38 -109/-4/-38 -108/-3/-38 
f -108/-3/-38 -109/-4/-38 -107/-2/-38 
f -110/-5/-38 -108/-3/-38 -106/-1/-38 
f -108/-3/-38 -107/-2/-38 -106/-1/-38 
f -105/-5/-37 -104/-3/-37 -103/-4/-37 
f -104/-3/-37 -102/-2/-37 -103/-4/-37 
f -105/-5/-37 -101/-1/-37 -104/-3/-37 
f -104/-3/-37 -101/-1/-37 -102/-2/-37 
f -100/-5/-36 -99/-4/-36 -98/-3/-36 
f -98/-3/-36 -99/-4/-36 -97/-2/-36 
f -100/-5/-36 -98/-3/-36 -96/-1/-36 
f -98/-3/-36 -97/-2/-36 -96/-1/-36 
f -95/-5/-35 -94/-3/-35 -93/-4/-34 
f -94/-3/-35 -92/-2/-33 -93/-4/-34 
f -95/-5/-35 -91/-1/-33 -94/-3/-35 
f -94/-3/-35 -91/-1/-33 -92/-2/-33 
f -90/-5/-32 -89/-4/-31 -88/-3/-32 
f -88/-3/-32 -89/-4/-31 -87/-2/-32 
f -90/-5/-32 -88/-3/-32 -86/-1/-32 
f -88/-3/-32 -87/-2/-32 -86/-1/-32 
f -85/-5/-30 -84/-3/-30 -83/-4/-29 
f -84/-3/-30 -82/-2/-30 -83/-4/-29 
f -85/-5/-30 -81/-1/-30 -84/-3/-30 
f -84/-3/-30 -81/-1/-30 -82/-2/-30 
f -80/-5/-28 -79/-4/-27 -78/-3/-28 
f -78/-3/-28 -79/-4/-27 -77/-2/-28 
f -80/-5/-28 -78/-3/-28 -76/-1/-28 
f -78/-3/-28 -77/-2/-28 -76/-1/-28 
f -75/-5/-26 -74/-3/-26 -73/-4/-25 
f -74/-3/-26 -72/-2/-26 -73/-4/-25 
f -75/-5/-26 -71/-1/-26 -74/-3/-26 
f -74/-3/-26 -71/-1/-26 -72/-2/-26 
f -70/-5/-24 -69/-4/-23 -68/-3/-24 
f -68/-3/-24 -69/-4/-23 -67/-2/-24 
f -70/-5/-24 -68/-3/-24 -66/-1/-24 
f -68/-3/-24 -67/-2/-24 -66/-1/-24 
f -65/-5/-22 -64/-3/-22 -63/-4/-21 
f -64/-3/-22 -62/-2/-22 -63/-4/-21 
f -65/-5/-22 -61/-1/-22 -64/-3/-22 
f -64/-3/-22 -61/-1/-22 -62/-2/-22 
f -60/-5/-20 -59/-4/-19 -58/-3/-20 
f -58/-3/-20 -59/-4/-19 -57/-2/-20 
f -60/-5/-20 -58/-3/-20 -56/-1/-20 
f -58/-3/-20 -57/-2/-20 -56/-1/-20 
f -55/-5/-18 -54/-3/-18 -53/-4/-17 
f -54/-3/-18 -52/-2/-18 -53/-4/-17 
f -55/-5/-18 -51/-1/-18 -54/-3/-18 
f -54/-3/-18 -51/-1/-18 -52/-2/-18 
f -50/-5/-16 -49/-4/-15 -48/-3/-16 
f -48/-3/-16 -49/-4/-15 -47/-2/-16 
f -50/-5/-16 -48/-3/-16 -46/-1/-16 
f -48/-3/-16 -47/-2/-16 -46/-1/-16 
f -45/-5/-14 -44/-3/-14 -43/-4/-13 
f -44/-3/-14 -42/-2/-14 -43/-4/-13 
f -45/-5/-14 -41/-1/-14 -44/-3/-14 
f -44/-3/-14 -41/-1/-14 -42/-2/-14 
f -40/-5/-12 -39/-4/-11 -38/-3/-12 
f -38/-3/-12 -39/-4/-11 -37/-2/-12 
f -40/-5/-12 -38/-3/-12 -36/-1/-12 
f -38/-3/-12 -37/-2/-12 -36/-1/-12 
f -35/-5/-10 -34/-3/-10 -33/-4/-9 
f -34/-3/-10 -32/-2/-10 -33/-4/-9 
f -35/-5/-10 -31/-1/-10 -34/-3/-10 
f -34/-3/-10 -31/-1/-10 -32/-2/-10 
f -30/-5/-8 -29/-4/-7 -28/-3/-8 
f -28/-3/-8 -29/-4/-7 -27/-2/-8 
f -30/-5/-8 -28/-3/-8 -26/-1/-8 
f -28/-3/-8 -27/-2/-8 -26/-1/-8 
f -25/-5/-6 -24/-3/-6 -23/-4/-5 
f -24/-3/-6 -22/-2/-6 -23/-4/-5 
f -25/-5/-6 -21/-1/-6 -24/-3/-6 
f -24/-3/-6 -21/-1/-6 -22/-2/-6 
f -20/-5/-32 -19/-4/-31 -18/-3/-32 
f -18/-3/-32 -19/-4/-31 -17/-2/-32 
f -20/-5/-32 -18/-3/-32 -16/-1/-32 
f -18/-3/-32 -17/-2/-32 -16/-1/-32 
f -15/-5/-30 -14/-3/-30 -13/-4/-29 
f -14/-3/-30 -12/-2/-30 -13/-4/-29 
f -15/-5/-30 -11/-1/-30 -14/-3/-30 
f -14/-3/-30 -11/-1/-30 -12/-2/-30 
f -10/-5/-4 -9/-4/-3 -8/-3/-4 
f -8/-3/-4 -9/-4/-3 -7/-2/-4 
f -10/-5/-4 -8/-3/-4 -6/-1/-4 
f -8/-3/-4 -7/-2/-4 -6/-1/-4 
f -5/-5/-2 -4/-3/-2 -3/-4/-1 
f -4/-3/-2 -2/-2/-2 -3/-4/-1 
f -5/-5/-2 -1/-1/-2 -4/-3/-2 
f -4/-3/-2 -1/-1/-2 -2/-2/-2 
# 0 polygons - 88 triangles

