# Blender v2.82 (sub 7) OBJ File: ''
# www.blender.org
mtllib paleta.mtl
o Cube
v 0.045850 1.081960 -0.045850
v 0.045850 0.012244 -0.045850
v 0.045850 1.081960 0.045850
v 0.045850 0.012244 0.045850
v -0.045850 1.081960 -0.045850
v -0.045850 0.012244 -0.045850
v -0.045850 1.081960 0.045850
v -0.045850 0.012244 0.045850
v 0.215189 1.259290 -0.215189
v 0.215189 1.259290 0.215189
v -0.215189 1.259290 -0.215189
v -0.215189 1.259290 0.215189
v 0.215189 1.462805 -0.215189
v 0.215189 1.462805 0.215189
v -0.215189 1.462805 -0.215189
v -0.215189 1.462805 0.215189
v 0.098320 1.599119 -0.098320
v 0.098320 1.599119 0.098320
v -0.098320 1.599119 -0.098320
v -0.098320 1.599119 0.098320
vt 0.147960 0.578413
vt 0.017241 0.664126
vt 0.102040 0.578413
vt 0.647960 0.578413
vt 0.602040 0.061362
vt 0.647960 0.061362
vt 0.102040 0.061362
vt 0.147960 0.061362
vt 0.117899 0.893292
vt 0.163819 0.937615
vt 0.117899 0.937615
vt 0.897960 0.578413
vt 0.852040 0.061362
vt 0.897960 0.061362
vt 0.397960 0.578413
vt 0.352040 0.061362
vt 0.397960 0.061362
vt 0.767241 0.664126
vt 0.852040 0.578413
vt 0.267241 0.664126
vt 0.352040 0.578413
vt 0.517241 0.664126
vt 0.602040 0.578413
vt 0.482759 0.664126
vt 0.267241 0.762496
vt 0.982759 0.664126
vt 0.767241 0.762496
vt 0.232759 0.664126
vt 0.017241 0.762496
vt 0.732759 0.664126
vt 0.517241 0.762496
vt 0.732759 0.762496
vt 0.575765 0.828384
vt 0.482759 0.762496
vt 0.325765 0.828384
vt 0.982759 0.762496
vt 0.825765 0.828384
vt 0.232759 0.762496
vt 0.075765 0.828384
vt 0.007878 0.992396
vt 0.106348 0.897349
vt 0.106348 0.992396
vt 0.163819 0.893292
vt 0.674235 0.828384
vt 0.424235 0.828384
vt 0.924235 0.828384
vt 0.174235 0.828384
vt 0.007878 0.897350
vn -0.7232 -0.6906 0.0000
vn 0.0000 0.0000 1.0000
vn -1.0000 0.0000 0.0000
vn 0.0000 -1.0000 0.0000
vn 1.0000 0.0000 0.0000
vn 0.0000 0.0000 -1.0000
vn 0.7232 -0.6906 0.0000
vn 0.0000 -0.6906 -0.7232
vn 0.0000 -0.6906 0.7232
vn 0.0000 0.6509 0.7592
vn 0.0000 0.6509 -0.7592
vn 0.7592 0.6509 0.0000
vn -0.7592 0.6509 0.0000
vn 0.0000 1.0000 0.0000
usemtl Material
s off
f 7/1/1 11/2/1 5/3/1
f 3/4/2 8/5/2 4/6/2
f 7/1/3 6/7/3 8/8/3
f 2/9/4 8/10/4 6/11/4
f 1/12/5 4/13/5 2/14/5
f 5/15/6 2/16/6 6/17/6
f 1/12/7 10/18/7 3/19/7
f 5/15/8 9/20/8 1/21/8
f 3/4/9 12/22/9 7/23/9
f 11/24/6 13/25/6 9/20/6
f 9/26/5 14/27/5 10/18/5
f 12/28/3 15/29/3 11/2/3
f 10/30/2 16/31/2 12/22/2
f 14/32/10 20/33/10 16/31/10
f 15/34/11 17/35/11 13/25/11
f 13/36/12 18/37/12 14/27/12
f 16/38/13 19/39/13 15/29/13
f 20/40/14 17/41/14 19/42/14
f 7/1/1 12/28/1 11/2/1
f 3/4/2 7/23/2 8/5/2
f 7/1/3 5/3/3 6/7/3
f 2/9/4 4/43/4 8/10/4
f 1/12/5 3/19/5 4/13/5
f 5/15/6 1/21/6 2/16/6
f 1/12/7 9/26/7 10/18/7
f 5/15/8 11/24/8 9/20/8
f 3/4/9 10/30/9 12/22/9
f 11/24/6 15/34/6 13/25/6
f 9/26/5 13/36/5 14/27/5
f 12/28/3 16/38/3 15/29/3
f 10/30/2 14/32/2 16/31/2
f 14/32/10 18/44/10 20/33/10
f 15/34/11 19/45/11 17/35/11
f 13/36/12 17/46/12 18/37/12
f 16/38/13 20/47/13 19/39/13
f 20/40/14 18/48/14 17/41/14
